<svg xmlns="http://www.w3.org/2000/svg" viewBox="0 0 1280 960"><defs><style>.a{fill:#e6e7e8;}.b{fill:#e66a2c;}.c{fill:#fff;}.d{fill:#4f3590;}.e{fill:#cddc29;}</style></defs><rect class="a" width="1280" height="960"/><polygon class="b" points="586.52 875 523.82 841.05 454.97 858.7 517.47 462.6 649.02 478.9 586.52 875"/><polygon class="b" points="805.43 860.7 735.11 841.8 673.47 874.21 621.67 476.9 753.63 463.39 805.43 860.7"/><circle class="c" cx="638" cy="315" r="216"/><path class="d" d="M857.32,273.93c.69-9.43,1-19.86-.28-25.92-2.11-10.21-15.63-30.52-21.79-39.4C833,199.42,830,189.42,827,184c-5.16-9.06-24.29-24.2-32.9-30.75-5-8-10.9-16.63-15.48-20.8-7.7-7-30.58-15.51-40.79-19.08-7.23-6.1-15.51-12.45-21.15-15-9.5-4.3-33.88-5.3-44.69-5.54-8.76-3.57-18.6-7.05-24.75-7.74C636.84,84,613.33,90.56,603,93.67c-9.44-.69-19.87-1-25.93.29-10.21,2.11-30.53,15.62-39.41,21.78-9.19,2.26-19.2,5.23-24.58,8.29-9.06,5.16-24.21,24.29-30.75,32.89-8,5-16.64,10.9-20.81,15.47-7,7.71-15.51,30.58-19.08,40.79-6.1,7.22-12.45,15.5-15,21.14-4.3,9.5-5.3,33.88-5.54,44.68-3.57,8.76-7.05,18.6-7.74,24.75-1.15,10.36,5.43,33.85,8.55,44.2-.69,9.44-1,19.87.28,25.93,2.11,10.21,15.63,30.52,21.79,39.4,2.26,9.19,5.23,19.19,8.29,24.57,5.16,9.06,24.29,24.2,32.9,30.74,5,8,10.9,16.64,15.48,20.81,7.7,7,30.58,15.51,40.79,19.07,7.23,6.11,15.51,12.46,21.15,15,9.5,4.3,33.88,5.3,44.69,5.54,8.76,3.57,18.6,7.05,24.75,7.73,10.36,1.16,33.87-5.42,44.22-8.54,9.44.69,19.87,1,25.93-.29,10.21-2.1,30.53-15.62,39.41-21.78,9.19-2.26,19.2-5.22,24.58-8.28,9.06-5.16,24.21-24.29,30.75-32.89,8-5,16.64-10.9,20.81-15.48,7-7.7,15.51-30.58,19.08-40.78,6.1-7.23,12.45-15.51,15-21.14,4.3-9.5,5.3-33.88,5.54-44.68,3.57-8.76,7-18.6,7.74-24.75C867,307.78,860.44,284.28,857.32,273.93ZM736.82,446.14l-10.24,44.95-36.29-21.65L666.66,509l-27.82-31.8-34.7,30.34L587.5,468.72l-42.38,18.14-3.82-42.08-45.91,4.16,9.38-41.2-45-10.23,21.66-36.29-39.6-23.62,31.82-27.82-30.36-34.69,38.86-16.63L464,216.08l42.09-3.81L502,166.37l41.21,9.37,10.24-44.94,36.29,21.65,23.63-39.58,27.82,31.8,34.7-30.35,16.64,38.85L734.88,135l3.82,42.08L784.61,173l-9.38,41.2,45,10.23-21.66,36.29,39.6,23.62-31.82,27.82,30.36,34.69-38.86,16.63L816,405.8l-42.09,3.82,4.16,45.9Z"/><path class="e" d="M752,360.58c2.41-7.07,9.57-30,6.38-45-.17-.83-.37-1.67-.56-2.51-.29-7.46-1.84-31.46-10.18-44.3-.46-.71-.94-1.43-1.42-2.14-2.94-6.86-13-28.72-25.38-37.71-.69-.51-1.4-1-2.1-1.5-5.21-5.35-22.43-22.15-37.22-26.11l-2.49-.64c-6.78-3.13-28.87-12.65-44.1-11l-2.56.3c-7.45-.49-31.49-1.46-45.13,5.49L585,196.59c-7.14,2.21-29.93,9.92-40.17,21.3-.57.63-1.14,1.28-1.7,1.93-5.87,4.61-24.38,20-29.87,34.27-.31.79-.6,1.6-.9,2.41-3.82,6.41-15.6,27.39-15.6,42.7,0,.85,0,1.71,0,2.57-1.27,7.36-4.74,31.16.74,45.45.9,2.32,1.88,4.66,2.91,7l-.83-.12s6.78,30.51,19.71,43.43c.6.6,1.22,1.2,1.84,1.8,4.3,6.1,18.68,25.39,32.66,31.61.78.35,1.58.69,2.37,1,6.2,4.16,26.54,17,41.83,17.81.85.05,1.71.08,2.57.11,7.28,1.65,30.87,6.37,45.44,1.64.81-.27,1.62-.54,2.44-.83,7.39-1.06,31.1-5.11,43-14.74.67-.54,1.33-1.09,2-1.65,6.51-3.64,27.2-15.92,34.86-29.17q.63-1.11,1.26-2.25c4.78-5.73,19.69-24.61,22.09-39.73C751.75,362.28,751.87,361.43,752,360.58ZM633.16,400.53,619.1,420.15l-14.88-22.58-20.15,13.29-5.81-26.41-23.57,5.18,4-26.73-28.41-4.3,17.24-26.94-20.33-13,21.77-16-14.33-19.43L560.75,276l-6.41-23.27,26.91,2.64,2.36-24,24.18,12.11L618.6,221.9l18.23,20,17.83-16.28,9.86,25.18L687,242l.18,27,24.14-.16-9.52,25.3,22.6,8.5-18,20.21,18,16-24,12.43,11.11,21.43-26.88,3,2.69,24-26.17-6.82-6.09,23.36Z"/></svg>