<svg xmlns="http://www.w3.org/2000/svg" viewBox="0 0 1280 960"><defs><style>.a{fill:#e6e7e8;}.b{fill:#cddc2a;}.c{fill:#e66a2c;}.d{fill:none;}.e{fill:#fff;}.f{fill:#4f3590;}</style></defs><rect class="a" width="1280" height="346.26"/><polygon class="b" points="640 943.57 640 943.57 608.67 446.05 634 354.05 646 354.05 673 446.05 640 943.57"/><rect class="c" y="348.79" width="1280" height="6"/><rect class="c" x="637" y="203.42" width="6" height="148.37"/><polygon class="b" points="773.03 553.96 639.98 420.91 510.93 549.97 504.56 543.61 639.98 408.19 779.39 547.59 773.03 553.96"/><polygon class="b" points="775.46 632.8 769.46 632.8 769.46 545.99 860.23 545.99 860.23 551.99 775.46 551.99 775.46 632.8"/><polygon class="b" points="713.67 569.93 707.67 569.93 707.67 483.12 798.44 483.12 798.44 489.12 713.67 489.12 713.67 569.93"/><polygon class="b" points="510.54 630.64 504.54 630.64 504.54 549.84 419.77 549.84 419.77 543.84 510.54 543.84 510.54 630.64"/><polygon class="b" points="571.25 569.93 565.25 569.93 565.25 489.12 480.48 489.12 480.48 483.12 571.25 483.12 571.25 569.93"/><polygon class="b" points="547.21 696.94 540.84 690.58 639.85 591.57 737.48 689.21 731.12 695.57 639.85 604.3 547.21 696.94"/><polygon class="b" points="736.7 752.02 730.7 752.02 730.7 689.81 795.71 689.81 795.71 695.81 736.7 695.81 736.7 752.02"/><polygon class="b" points="693.02 710.5 687.02 710.5 687.02 648.29 752.03 648.29 752.03 654.29 693.02 654.29 693.02 710.5"/><polygon class="b" points="547.15 752.02 541.15 752.02 541.15 695.81 482.14 695.81 482.14 689.81 547.15 689.81 547.15 752.02"/><polygon class="b" points="587.59 710.5 581.59 710.5 581.59 654.29 522.58 654.29 522.58 648.29 587.59 648.29 587.59 710.5"/><polygon class="b" points="577.75 848.64 573.51 844.4 639.54 778.37 704.65 843.48 700.41 847.72 639.54 786.86 577.75 848.64"/><polygon class="b" points="705.13 885.37 699.13 885.37 699.13 842.88 743.48 842.88 743.48 848.88 705.13 848.88 705.13 885.37"/><polygon class="b" points="676 857.68 670 857.68 670 815.19 714.35 815.19 714.35 821.19 676 821.19 676 857.68"/><polygon class="b" points="578.72 885.37 572.72 885.37 572.72 848.88 534.36 848.88 534.36 842.88 578.72 842.88 578.72 885.37"/><polygon class="b" points="605.69 857.68 599.69 857.68 599.69 821.19 561.33 821.19 561.33 815.19 605.69 815.19 605.69 857.68"/><path class="d" d="M664.29,178.12l2.63-4.41c-2,.2-4,.35-6.06.49Z"/><path class="d" d="M607.33,176.8l6.12-5.35c-3.11-.58-6.19-1.22-9.24-1.95Z"/><path class="d" d="M718.87,161.78,719,161l-.84.34Z"/><path class="d" d="M553.57,157.93l8.73-3.73q-4.86-2.46-9.54-5.17Z"/><path class="d" d="M459.52,21.93l2.05,1.22c-.18-.85-.35-1.7-.52-2.56Z"/><path class="d" d="M475.86,76.52,482.31,78c-1.2-2.11-2.37-4.25-3.49-6.42Z"/><path class="d" d="M510.09,115.39l-1.82,8,9-.82Q513.6,119.07,510.09,115.39Z"/><path class="e" d="M461.57,23.15l34,20.3L478.82,71.56c1.12,2.17,2.29,4.31,3.49,6.42l34.5,7.86-6.72,29.55q3.51,3.67,7.21,7.17l32.79-3L552.76,149q4.68,2.72,9.54,5.17l29.88-12.8,12,28.1c3,.73,6.13,1.37,9.24,1.95l25.49-22.31,21.92,25.06c2-.14,4-.29,6.06-.49l18.89-31.65,32.39,19.32L719,161l9.15-40.21,37.54,8.55-3.79-41.83,38.35-3.47L783.76,45.47l35.39-15.16L794,1.54H482.83L461.05,20.59C461.22,21.45,461.39,22.3,461.57,23.15Z"/><path class="f" d="M458.47,72.56l17.39,4,3-5,16.77-28.11-34-20.3-2.05-1.22L443.46,36s-.57-1.77-1.43-4.61c-.62,8.59-.87,18.1.27,23.62,1.91,9.3,14.23,27.81,19.84,35.9C459.68,80.9,458.14,72,458.47,72.56Z"/><path class="f" d="M459.52,21.93l1.53-1.34,21.78-19h-48C436.37,11.78,440,24.63,442,31.37c.86,2.84,1.43,4.61,1.43,4.61Z"/><path class="f" d="M794,1.54l25.17,28.77,19.62-8.39s0,1.86-.07,4.83c3.25-8,6.42-16.95,7-22.55a24.31,24.31,0,0,0,.12-2.66Z"/><path class="f" d="M819.15,30.31,783.76,45.47l16.53,38.61,21.25-1.93S821,83.92,820,86.73c5.56-6.59,11.35-14.13,13.67-19.27,3.92-8.65,4.83-30.87,5.05-40.71.06-3,.07-4.83.07-4.83Z"/><path class="f" d="M800.29,84.08l-38.35,3.47,3.79,41.83,20.81,4.73s-1.1,1.51-2.9,3.87c7.33-4.54,15.16-9.93,19-14.1,6.4-7,14.13-27.86,17.38-37.15,1-2.81,1.56-4.58,1.56-4.58Z"/><path class="f" d="M765.73,129.38l-37.54-8.55L719,161l-.17.74,18.32,10.94s-1.5,1.09-3.94,2.78c8.37-2.06,17.48-4.76,22.38-7.55,8.26-4.7,22-22.13,28-30,1.8-2.36,2.9-3.87,2.9-3.87Z"/><path class="f" d="M718.87,161.78l-.67-.4-32.39-19.32-18.89,31.65-2.63,4.41,14.05,16.06s-1.77.58-4.62,1.43c8.6.63,18.1.88,23.62-.26,9.31-1.92,27.82-14.23,35.91-19.85,2.44-1.69,3.94-2.78,3.94-2.78Z"/><path class="f" d="M664.29,178.12l-3.43-3.92-21.92-25.06-25.49,22.31-6.12,5.35,8.4,19.61s-1.86,0-4.83-.07c8,3.26,16.94,6.43,22.54,7,9.44,1.05,30.85-4.94,40.28-7.78,2.85-.85,4.62-1.43,4.62-1.43Z"/><path class="f" d="M607.33,176.8l-3.12-7.3-12-28.1L562.3,154.2l-8.73,3.73,1.92,21.25s-1.76-.57-4.57-1.55c6.58,5.56,14.13,11.34,19.26,13.67,8.66,3.91,30.87,4.83,40.72,5,3,.07,4.83.07,4.83.07Z"/><path class="f" d="M553.57,157.93l-.81-8.9-2.67-29.44-32.79,3-9,.82-4.74,20.8s-1.5-1.09-3.87-2.89c4.55,7.32,9.93,15.16,14.1,19,7,6.4,27.86,14.14,37.16,17.39,2.81,1,4.57,1.55,4.57,1.55Z"/><path class="f" d="M508.27,123.38l1.82-8,6.72-29.55L482.31,78l-6.45-1.46-17.39-4c-.33-.58,1.21,8.34,3.67,18.33,2.06,8.37,4.76,17.49,7.55,22.39,4.7,8.25,22.13,22.05,30,28,2.37,1.8,3.87,2.89,3.87,2.89Z"/></svg>