<svg xmlns="http://www.w3.org/2000/svg" viewBox="0 0 1280 960"><defs><style>.a{fill:#e6e7e8;}.b{fill:#e66a2c;}.c{fill:#4f3590;}.d{fill:#cddc29;}</style></defs><rect class="a" y="719" width="1280" height="241"/><rect class="b" y="719.58" width="1280" height="6"/><path class="c" d="M603.85,496.19s-9.78-13.49-11-19.38.81-21.09.93-20.51l25,14.91Z"/><path class="c" d="M593.42,467.58s-5.14-15.85-4.48-21.83,7.29-19.81,7.22-19.22l19.15,21.89Z"/><path class="c" d="M592.34,437.14s0-16.66,2.48-22.14,13-16.59,12.81-16.05l11.45,26.74Z"/><path class="c" d="M600.71,407.86s5.16-15.84,9.21-20.29,17.54-11.74,17.14-11.3l2.62,29Z"/><path class="c" d="M617.73,382.6s9.79-13.48,15-16.45,20.31-5.75,19.79-5.46l-6.45,28.37Z"/><path class="c" d="M641.71,363.84s13.49-9.79,19.37-11,21.09.81,20.51.93l-14.9,25Z"/><path class="c" d="M670.32,353.4s15.85-5.14,21.83-4.48,19.81,7.29,19.22,7.22l-21.9,19.15Z"/><path class="c" d="M700.76,352.32s16.66,0,22.14,2.48,16.58,13.06,16,12.81l-26.73,11.45Z"/><path class="c" d="M730,360.69s15.84,5.16,20.28,9.21,11.75,17.54,11.31,17.14l-29,2.62Z"/><path class="c" d="M755.3,377.71s13.47,9.8,16.45,15,5.74,20.31,5.45,19.79l-28.36-6.45Z"/><path class="c" d="M774.06,401.69s9.79,13.49,11,19.37-.81,21.1-.92,20.51l-25-14.9Z"/><path class="c" d="M784.5,430.3s5.14,15.85,4.47,21.83-7.28,19.81-7.22,19.22l-19.15-21.9Z"/><path class="c" d="M785.58,460.74s0,16.66-2.49,22.14-13.05,16.58-12.8,16.05l-11.45-26.74Z"/><path class="c" d="M777.2,490s-5.15,15.84-9.2,20.29-17.54,11.74-17.14,11.3l-2.62-29Z"/><path class="c" d="M760.19,515.28s-9.8,13.47-15,16.45-20.31,5.74-19.8,5.45l6.46-28.36Z"/><path class="c" d="M736.21,534s-13.49,9.79-19.38,11-21.09-.8-20.51-.92l14.91-25Z"/><path class="c" d="M707.59,544.48s-15.84,5.14-21.82,4.47-19.81-7.28-19.22-7.22l21.89-19.15Z"/><path class="c" d="M677.16,545.56s-16.66,0-22.14-2.49-16.59-13.05-16-12.8l26.74-11.45Z"/><path class="c" d="M647.88,537.19S632,532,627.59,528s-11.74-17.54-11.3-17.14l29-2.62Z"/><path class="c" d="M622.62,520.17s-13.48-9.8-16.45-15-5.75-20.31-5.46-19.8l28.37,6.46Z"/><rect class="b" x="685.96" y="548.95" width="6" height="173.62"/><path class="c" d="M396.69,580.15s-8.72-12-9.8-17.26.72-18.79.83-18.27L410,557.9Z"/><path class="c" d="M387.16,556.83s-3.29-10.13-2.87-14,4.67-12.67,4.62-12.29l12.26,14Z"/><path class="c" d="M386.47,542.21s0-14.89,2.22-19.78,11.66-14.82,11.44-14.34L410.36,532Z"/><path class="c" d="M391.82,518.63s3.3-10.13,5.89-13,11.22-7.51,11-7.23L410.36,517Z"/><path class="c" d="M401.11,506.5s8.79-12.08,13.47-14.74,18.21-5.16,17.74-4.89l-5.78,25.42Z"/><path class="c" d="M418.05,490.47s8.63-6.26,12.4-7,13.49.52,13.12.59L434,500Z"/><path class="c" d="M429.52,485.3s15.42-5,21.23-4.35,19.27,7.09,18.7,7l-21.3,18.63Z"/><path class="c" d="M455.83,483.1s10.66,0,14.16,1.59,10.61,8.35,10.27,8.19l-17.11,7.33Z"/><path class="c" d="M474.56,488.46s10.14,3.3,13,5.89,7.51,11.22,7.23,11L476.24,507Z"/><path class="c" d="M490.72,499.34s8.62,6.27,10.52,9.61,3.68,13,3.49,12.67l-18.14-4.13Z"/><path class="c" d="M499.87,509.68s8.72,12,9.8,17.25-.72,18.79-.83,18.27l-22.25-13.27Z"/><path class="c" d="M509.4,533s3.29,10.14,2.86,14-4.66,12.67-4.61,12.3l-12.26-14Z"/><path class="c" d="M510.09,547.89s0,14.65-2.18,19.46-11.47,14.58-11.26,14.11L486.59,558Z"/><path class="c" d="M504.74,571.19s-3.3,10.14-5.89,13-11.22,7.51-11,7.23l-1.68-18.53Z"/><path class="c" d="M495.46,584.4s-7.71,10.6-11.82,12.94-16,4.53-15.58,4.3l5.08-22.33Z"/><path class="c" d="M478.51,599.36s-8.63,6.26-12.4,7-13.49-.52-13.12-.6l9.54-16Z"/><path class="c" d="M466.44,604.65s-14.95,4.86-20.59,4.23-18.69-6.88-18.14-6.81L448.37,584Z"/><path class="c" d="M440.73,606.73s-10.66,0-14.16-1.59-10.61-8.35-10.27-8.2l17.11-7.32Z"/><path class="c" d="M426,602.43s-13.84-4.51-17.72-8-10.26-15.33-9.88-15l25.31-2.29Z"/><path class="c" d="M405.84,590.48s-8.62-6.27-10.52-9.61-3.68-13-3.49-12.66L410,572.34Z"/><rect class="b" x="445.28" y="606.48" width="6" height="116.09"/><rect class="b" x="216.49" y="651" width="6" height="71.58"/><path class="c" d="M859.18,411.71s-14.87-20.48-16.71-29.42,1.23-32,1.41-31.15l37.93,22.64Z"/><path class="c" d="M843.33,368.26s-7.81-24.07-6.8-33.14,11.07-30.09,11-29.19l29.09,33.25Z"/><path class="c" d="M841.68,322s0-25.31,3.78-33.62,19.82-25.2,19.45-24.38l17.38,40.61Z"/><path class="c" d="M854.4,277.57s7.83-24.06,14-30.81,26.64-17.83,26-17.17l4,44Z"/><path class="c" d="M880.24,239.21s14.88-20.47,22.82-25,30.84-8.73,30.06-8.29L923.31,249Z"/><path class="c" d="M916.67,210.71s20.48-14.86,29.42-16.71,32,1.23,31.15,1.41L954.6,233.35Z"/><path class="c" d="M960.12,194.86s24.07-7.81,33.14-6.8,30.09,11.07,29.19,11L989.2,228.11Z"/><path class="c" d="M1006.34,193.22s25.31,0,33.62,3.77,25.2,19.83,24.38,19.45l-40.61,17.39Z"/><path class="c" d="M1050.81,205.94s24.06,7.83,30.81,14,17.83,26.63,17.17,26l-44,4Z"/><path class="c" d="M1089.17,231.78s20.47,14.88,25,22.81,8.73,30.85,8.29,30.06l-43.08-9.8Z"/><path class="c" d="M1117.67,268.2s14.86,20.48,16.71,29.42-1.23,32-1.41,31.15L1095,306.14Z"/><path class="c" d="M1133.52,311.65s7.8,24.07,6.79,33.15-11.06,30.08-11,29.19l-29.08-33.25Z"/><path class="c" d="M1135.16,357.88s0,25.3-3.78,33.62-19.82,25.19-19.44,24.37l-17.39-40.61Z"/><path class="c" d="M1122.44,402.34s-7.83,24.07-14,30.81-26.64,17.84-26,17.17l-4-44Z"/><path class="c" d="M1096.6,440.7s-14.88,20.47-22.81,25-30.85,8.73-30.06,8.28l9.8-43.07Z"/><path class="c" d="M1060.18,469.2s-20.48,14.87-29.42,16.71-32-1.23-31.15-1.41l22.63-37.93Z"/><path class="c" d="M1016.72,485.05s-24.07,7.81-33.14,6.8-30.08-11.07-29.19-11l33.25-29.08Z"/><path class="c" d="M970.5,486.7s-25.3,0-33.62-3.78-25.19-19.82-24.37-19.45l40.61-17.38Z"/><path class="c" d="M926,474s-24.06-7.83-30.8-14-17.84-26.64-17.17-26l44-4Z"/><path class="c" d="M887.67,448.14s-20.46-14.88-25-22.82-8.73-30.84-8.28-30.06l43.07,9.81Z"/><path class="d" d="M904.58,387.89a159.81,159.81,0,0,1-12-23.53c-4.4-11.48-.22-32.08-.22-32.08L926.28,354Z"/><path class="d" d="M894.83,358.33s-2.77-14-2.77-26.28,11.29-30,11.29-30l23.89,32.41Z"/><path class="d" d="M896.32,327.23a159.24,159.24,0,0,1,6.84-25.52c4.4-11.47,21.3-24,21.3-24l10.68,38.82Z"/><path class="d" d="M908.86,298.74a159.35,159.35,0,0,1,15.53-21.38c8.22-9.13,28.48-14.76,28.48-14.76l-3.94,40.07Z"/><path class="d" d="M930.78,276.63a160,160,0,0,1,22.15-14.4c11-5.58,31.88-3.57,31.88-3.57l-18,36Z"/><path class="d" d="M959.16,263.84a159.9,159.9,0,0,1,25.84-5.5c12.23-1.28,31,8.09,31,8.09l-29.74,27.15Z"/><path class="d" d="M990.25,262.08s14.22.94,26.09,4.12,26.08,18.68,26.08,18.68l-37.49,14.69Z"/><path class="d" d="M1019.9,271.57a159.91,159.91,0,0,1,22.88,13.2c9.94,7.23,17.65,26.79,17.65,26.79l-40.26.27Z"/><path class="d" d="M1044.18,291.05s9.93,10.22,16.62,20.53,6.89,31.33,6.89,31.33L1030,328.74Z"/><path class="d" d="M1059.86,318a159.73,159.73,0,0,1,8.17,25.12c2.55,12-4.8,31.72-4.8,31.72l-30.11-26.74Z"/><path class="d" d="M1064.86,348.68s.55,14.24-1.38,26.38S1047.64,403,1047.64,403l-18.53-35.75Z"/><path class="d" d="M1058.52,379.16a159.07,159.07,0,0,1-10.74,24.13c-6.15,10.65-24.79,20.36-24.79,20.36l-4.48-40Z"/><path class="d" d="M1041.68,405.34s-9.12,11-18.68,18.68-30.44,10.12-30.44,10.12l10.16-39Z"/><path class="d" d="M1016.57,423.75s-12.44,6.95-24.13,10.74-32-1.45-32-1.45l23.44-32.74Z"/><path class="d" d="M986.54,431.93s-14.11,2-26.38,1.39-29.4-12.84-29.4-12.84l33.62-22.16Z"/><path class="d" d="M955.56,428.81a159.35,159.35,0,0,1-25.12-8.16c-11.23-5-22.84-22.52-22.84-22.52l39.32-8.64Z"/><path class="d" d="M927.76,414.8s-11.84-7.93-20.53-16.62S894,369,894,369l39.81,6Z"/><rect class="b" x="982.54" y="491.85" width="6" height="230.73"/><circle class="d" cx="686.78" cy="448.35" r="38.53"/><circle class="c" cx="219.49" cy="633.78" r="28.78"/><rect class="d" x="-88.66" y="338.67" width="1372.73" height="6" transform="translate(-90.75 337.95) rotate(-29.44)"/></svg>