<svg xmlns="http://www.w3.org/2000/svg" viewBox="0 0 1280 960"><defs><style>.a{fill:#e6e7e8;}.b{fill:#e66a2c;}.c{fill:#4f3590;}.d{fill:#cddc29;}</style></defs><path class="a" d="M1279,1V959H1V1H1279m1-1H0V960H1280V0Z"/><rect class="b" x="445" y="605" width="6" height="118"/><rect class="a" y="723" width="1280" height="237"/><rect class="b" y="720" width="1280" height="6"/><rect class="b" x="686" y="545" width="6" height="178"/><path class="c" d="M785.19,432.55c.31-4.18.43-8.8-.13-11.49-.93-4.52-6.91-13.52-9.64-17.45-1-4.07-2.32-8.5-3.67-10.88-2.29-4-10.76-10.72-14.57-13.62-2.21-3.56-4.83-7.37-6.86-9.21-3.41-3.11-13.54-6.87-18.06-8.45-3.2-2.7-6.87-5.52-9.36-6.65-4.21-1.9-15-2.35-19.79-2.45-3.88-1.58-8.24-3.12-11-3.43-4.59-.51-15,2.41-19.58,3.79-4.18-.31-8.8-.43-11.49.12-4.52.94-13.52,6.92-17.45,9.65-4.07,1-8.5,2.32-10.88,3.67-4,2.29-10.72,10.76-13.62,14.57-3.56,2.21-7.37,4.83-9.21,6.85-3.11,3.41-6.87,13.55-8.45,18.07-2.7,3.2-5.52,6.86-6.65,9.36-1.9,4.21-2.35,15-2.45,19.79-1.58,3.88-3.12,8.24-3.43,11-.51,4.59,2.41,15,3.78,19.58-.3,4.18-.42,8.8.13,11.48.94,4.53,6.92,13.52,9.65,17.46,1,4.07,2.31,8.5,3.67,10.88,2.28,4,10.76,10.72,14.57,13.62,2.21,3.56,4.83,7.36,6.85,9.21,3.41,3.11,13.55,6.87,18.07,8.45,3.2,2.7,6.86,5.51,9.36,6.64,4.21,1.91,15,2.35,19.79,2.46,3.88,1.58,8.24,3.12,11,3.42,4.59.52,15-2.4,19.58-3.78,4.18.31,8.8.43,11.48-.13,4.53-.93,13.52-6.91,17.46-9.64,4.06-1,8.5-2.32,10.88-3.67,4-2.29,10.72-10.76,13.61-14.57,3.56-2.21,7.37-4.83,9.22-6.86,3.11-3.41,6.87-13.54,8.45-18.06,2.7-3.2,5.51-6.87,6.64-9.36,1.91-4.21,2.35-15,2.46-19.79,1.58-3.88,3.12-8.24,3.42-11C789.48,447.54,786.57,437.13,785.19,432.55Zm-53.36,76.27-4.53,19.91-16.07-9.59-10.46,17.53-12.33-14.09L673.08,536l-7.37-17.21-18.77,8-1.69-18.64-20.33,1.84,4.16-18.25-19.91-4.53,9.59-16.07-17.53-10.46,14.08-12.33-13.44-15.36,17.21-7.37-8-18.77,18.64-1.68-1.84-20.34,18.25,4.16,4.53-19.91,16.07,9.59,10.46-17.53,12.32,14.08,15.37-13.44,7.37,17.21L731,371l1.69,18.64L753,387.82l-4.15,18.25,19.91,4.53-9.59,16.07,17.53,10.46L762.6,449.45,776,464.82l-17.2,7.37,8,18.76-18.64,1.69L750.08,513Z"/><path class="c" d="M509.65,534.71a36,36,0,0,0-.26-7.78c-.63-3-3.83-8.36-6.4-12.29a27.17,27.17,0,0,0-2-5.69c-1.46-2.57-6.89-6.86-9.32-8.71a31.87,31.87,0,0,0-4.38-5.89c-2.18-2-8.67-4.4-11.56-5.41a31.73,31.73,0,0,0-6-4.25c-2.38-1.08-8.06-1.43-11.46-1.54a37.45,37.45,0,0,0-7.78-2.2c-3.22-.36-9.39,1-14.25,2.31a27.31,27.31,0,0,0-6.05.17c-3.22.66-10,5.33-11.88,6.67a23.82,23.82,0,0,0-4,1.66c-2.19,1.24-5.28,4.55-7.95,7.72-2.66,1.5-7.16,4.25-8.92,6.17s-4.12,7.93-5.21,11a32.08,32.08,0,0,0-3.81,5.76c-1.22,2.69-1.77,8.39-2,13a33.58,33.58,0,0,0-2.37,7.46c-.32,2.85,1.42,9.19,2.33,12.25a35.92,35.92,0,0,0,.26,7.77c.63,3,3.83,8.36,6.4,12.29a27,27,0,0,0,2,5.69c1.38,2.43,6.29,6.39,8.88,8.38a31.53,31.53,0,0,0,4.11,5.14c2.12,1.94,7.25,4.17,11.44,5.78a36.18,36.18,0,0,0,6.82,5c2.4,1.08,8.18,1.43,11.56,1.54A41.33,41.33,0,0,0,445,608.8v.14a31.7,31.7,0,0,1,6-.19v-.24c2.81-.46,6-1.23,8.68-2a27.17,27.17,0,0,0,6.15-.15c3.77-.78,12.4-7,12.4-7l-.06,0a26,26,0,0,0,5.19-2c2.2-1.25,5.43-4.87,8-8,2.59-1.54,5.83-3.65,7.25-5.21,1.88-2.06,4.13-8,5.22-11a32.52,32.52,0,0,0,3.84-5.78c1.21-2.68,1.75-8.42,2-13A33.3,33.3,0,0,0,512,547C512.3,544.11,510.56,537.76,509.65,534.71ZM486.59,558l6.13,14.33-6.52.59.87,9.62-13.93-3.18-3.37,14.83-7.24-4.32L458.85,596l-10.48-12-12.64,11-2.32-5.43-8.22,3.52-1.45-16-15.17,1.37,1.4-6.15-7.59-1.73L410,557.9l-14.28-8.53,5.48-4.79-5.52-6.3,14.71-6.3-6.2-14.47,6.2-.56-.78-8.52,17,3.86,3.36-14.76L434,500l3.39-5.67,10.73,12.27,12.91-11.29,2.09,4.9,12-5.15L476.24,507l13-1.18-2.66,11.68,7.59,1.72-7.59,12.72,14.28,8.52-5.48,4.79,5.69,6.51Z"/><rect class="b" x="216" y="651" width="6" height="72"/><path class="c" d="M1134.57,315.06c.46-6.34.65-13.36-.19-17.44-1.42-6.86-10.51-20.53-14.65-26.5-1.53-6.18-3.52-12.91-5.58-16.53-3.47-6.09-16.34-16.28-22.12-20.68-3.36-5.4-7.34-11.19-10.41-14-5.18-4.73-20.57-10.44-27.43-12.83-4.87-4.11-10.44-8.38-14.23-10.1-6.39-2.89-22.78-3.56-30.05-3.72-5.89-2.4-12.51-4.75-16.65-5.21-7-.77-22.77,3.65-29.73,5.75-6.35-.47-13.37-.65-17.44.19-6.87,1.42-20.53,10.51-26.51,14.65-6.18,1.52-12.91,3.52-16.52,5.58-6.1,3.47-16.28,16.34-20.68,22.12-5.41,3.36-11.19,7.33-14,10.41-4.72,5.18-10.43,20.57-12.83,27.43-4.1,4.86-8.37,10.43-10.09,14.23-2.89,6.38-3.57,22.78-3.73,30.05-2.4,5.89-4.74,12.51-5.2,16.65-.78,7,3.65,22.77,5.74,29.73-.46,6.35-.64,13.36.2,17.44,1.41,6.87,10.5,20.53,14.65,26.51,1.52,6.17,3.51,12.9,5.57,16.52,3.47,6.1,16.34,16.28,22.13,20.68,3.35,5.41,7.33,11.19,10.41,14,5.18,4.72,20.56,10.43,27.43,12.83,4.86,4.1,10.43,8.37,14.22,10.09,6.39,2.89,22.79,3.57,30.06,3.73,5.89,2.4,12.5,4.74,16.64,5.2,7,.78,22.78-3.65,29.74-5.74,6.34.46,13.36.64,17.44-.2,6.86-1.41,20.53-10.51,26.5-14.65,6.18-1.52,12.91-3.52,16.53-5.57,6.09-3.47,16.28-16.34,20.68-22.13,5.4-3.35,11.19-7.33,14-10.41,4.72-5.18,10.43-20.57,12.83-27.43,4.11-4.86,8.38-10.43,10.09-14.22,2.9-6.39,3.57-22.79,3.73-30.06,2.4-5.89,4.74-12.51,5.2-16.64C1141.09,337.83,1136.67,322,1134.57,315.06Zm-81,115.84-6.88,30.23-24.41-14.56-15.89,26.62L987.64,451.8,964.3,472.21l-11.18-26.12-28.51,12.2L922.05,430l-30.88,2.8,6.31-27.71-30.23-6.89,14.56-24.4-26.63-15.89,21.4-18.71-20.42-23.34,26.13-11.19-12.2-28.5,28.31-2.57-2.8-30.87,27.71,6.3,6.88-30.23,24.41,14.57,15.89-26.63,18.71,21.39,23.34-20.41,11.19,26.13,28.5-12.2,2.56,28.3,30.88-2.8-6.31,27.72,30.24,6.88L1095,306.14,1121.66,322l-21.39,18.71,20.41,23.34-26.13,11.18,12.2,28.5-28.3,2.57,2.79,30.88Z"/><path class="d" d="M1063.74,373.34c1.62-4.75,6.43-20.2,4.29-30.27-.12-.56-.25-1.12-.38-1.69-.19-5-1.24-21.16-6.85-29.8q-.46-.72-1-1.44c-2-4.62-8.73-19.31-17.06-25.37l-1.42-1c-3.5-3.6-15.07-14.9-25-17.57l-1.68-.42c-4.56-2.11-19.42-8.51-29.66-7.44l-1.72.2c-5-.33-21.17-1-30.35,3.69l-1.53.81c-4.8,1.48-20.12,6.67-27,14.32-.39.43-.77.86-1.15,1.3-4,3.1-16.39,13.44-20.08,23-.21.54-.41,1.08-.61,1.63-2.57,4.31-10.49,18.42-10.49,28.71,0,.58,0,1.16,0,1.74-.85,4.94-3.19,20.95.5,30.57.6,1.56,1.26,3.13,1.95,4.69L894,369s4.56,20.53,13.25,29.22c.4.41.82.81,1.24,1.21,2.89,4.1,12.56,17.08,22,21.26q.78.36,1.59.69c4.17,2.8,17.84,11.44,28.13,12l1.73.07c4.89,1.12,20.76,4.29,30.55,1.1.55-.17,1.1-.36,1.64-.55,5-.71,20.92-3.44,28.92-9.92l1.34-1.1c4.38-2.45,18.29-10.71,23.44-19.63.29-.5.57-1,.85-1.51,3.21-3.86,13.24-16.55,14.85-26.72C1063.57,374.49,1063.66,373.92,1063.74,373.34Zm-80,27.13-9.45,13.2-10-15.18-13.55,8.93-3.9-17.76L931,393.14l2.72-18-19.11-2.89,11.6-18.12-13.68-8.75,14.64-10.79-9.63-13.07,17.53-4.82-4.3-15.66,18.09,1.78,1.59-16.15,16.26,8.14L974,280.32l12.26,13.43,12-10.95,6.63,16.94,15.12-5.92.12,18.18,16.24-.11-6.4,17,15.19,5.72-12.08,13.59L1045.21,359l-16.14,8.37,7.46,14.41-18.07,2,1.81,16.13-17.6-4.59-4.09,15.71Z"/><rect class="b" x="983" y="492" width="6" height="231"/><circle class="d" cx="686.5" cy="448.5" r="38.5"/><circle class="c" cx="219" cy="634" r="29"/><polygon class="d" points="0 683 1210 0 1197.79 0 0 676.11 0 683"/></svg>