<svg xmlns="http://www.w3.org/2000/svg" viewBox="0 0 1280 960"><defs><style>.a{fill:#e6e7e8;}.b{fill:#cddc2a;}.c{fill:#e66a2c;}.d{fill:#fff;}.e{fill:#4f3590;}</style></defs><path class="a" d="M1279,1V959H1V1H1279m1-1H0V960H1280V0Z"/><rect class="a" width="1280" height="352"/><polygon class="b" points="640 943.52 640 943.52 608.67 446 634 354 646 354 673 446 640 943.52"/><rect class="c" y="349" width="1280" height="6"/><rect class="c" x="637" y="204" width="6" height="148"/><polygon class="b" points="773.03 553.96 639.98 420.91 510.93 549.97 504.56 543.61 639.98 408.19 779.39 547.59 773.03 553.96"/><polygon class="b" points="775 633 769 633 769 546 860 546 860 552 775 552 775 633"/><polygon class="b" points="714 570 708 570 708 483 799 483 799 489 714 489 714 570"/><polygon class="b" points="511 631 505 631 505 550 420 550 420 544 511 544 511 631"/><polygon class="b" points="571 570 565 570 565 489 480 489 480 483 571 483 571 570"/><polygon class="b" points="547.21 696.94 540.84 690.58 639.85 591.57 737.48 689.21 731.12 695.57 639.85 604.3 547.21 696.94"/><polygon class="b" points="737 752 731 752 731 690 796 690 796 696 737 696 737 752"/><polygon class="b" points="693 710 687 710 687 648 752 648 752 654 693 654 693 710"/><polygon class="b" points="547 752 541 752 541 696 482 696 482 690 547 690 547 752"/><polygon class="b" points="588 710 582 710 582 654 523 654 523 648 588 648 588 710"/><polygon class="b" points="577.75 848.64 573.51 844.4 639.54 778.37 704.65 843.48 700.41 847.72 639.54 786.86 577.75 848.64"/><polygon class="b" points="705 885 699 885 699 843 743 843 743 849 705 849 705 885"/><polygon class="b" points="676 857 670 857 670 815 714 815 714 821 676 821 676 857"/><polygon class="b" points="579 885 573 885 573 849 535 849 535 843 579 843 579 885"/><polygon class="b" points="606 857 600 857 600 821 562 821 562 815 606 815 606 857"/><path class="d" d="M449.3,0c1.26,104.25,86.15,188.37,190.7,188.37S829.44,104.25,830.7,0Z"/><path class="e" d="M792.63,0l26.52,30.31L783.76,45.47l16.53,38.61-38.35,3.47,3.79,41.83-37.54-8.55-9.32,41-33.06-19.72-21.52,36.06-25.35-29L607.33,176.8l-15.15-35.4-38.61,16.53-3.48-38.34-41.82,3.79,8.54-37.54-40.95-9.32,19.73-33.07L459.52,21.93,484.6,0h-50C436,10.45,439.9,24.28,442,31.37c-.62,8.59-.87,18.1.27,23.62,1.91,9.3,14.23,27.81,19.84,35.9,2.06,8.37,4.76,17.49,7.55,22.39,4.7,8.25,22.13,22.05,30,28,4.55,7.32,9.93,15.16,14.1,19,7,6.4,27.86,14.14,37.16,17.39,6.58,5.56,14.13,11.34,19.26,13.67,8.66,3.91,30.87,4.83,40.72,5,8,3.26,16.94,6.43,22.54,7,9.44,1.05,30.85-4.94,40.28-7.78,8.6.63,18.1.88,23.62-.26,9.31-1.92,27.82-14.23,35.91-19.85,8.37-2.06,17.48-4.76,22.38-7.55,8.26-4.7,22-22.13,28-30,7.33-4.54,15.16-9.93,19-14.1,6.4-7,14.13-27.86,17.38-37.15,5.56-6.59,11.35-14.13,13.67-19.27,3.92-8.65,4.83-30.87,5.05-40.71,3.25-8,6.42-16.95,7-22.55a27.22,27.22,0,0,0,.07-4.2Z"/></svg>