<svg xmlns="http://www.w3.org/2000/svg" viewBox="0 0 1280 960"><defs><style>.a{fill:#e6e7e8;}.b{fill:#fff;}.c{fill:#e66a2c;}.d{fill:#4f3590;}.e{fill:#cddc29;}</style></defs><path class="a" d="M1279,1V959H1V1H1279m1-1H0V960H1280V0Z"/><rect class="a" width="1280" height="583"/><circle class="b" cx="639.5" cy="276.5" r="112.5"/><rect class="c" y="580" width="1280" height="6"/><rect class="c" x="637" y="398" width="6" height="185"/><path class="d" d="M764,256.12c.39-5.39.54-11.34-.17-14.8-1.2-5.83-8.92-17.42-12.43-22.49-1.29-5.25-3-11-4.74-14-2.94-5.17-13.86-13.82-18.77-17.55-2.85-4.59-6.22-9.5-8.84-11.88-4.39-4-17.45-8.85-23.28-10.89-4.12-3.48-8.85-7.11-12.07-8.56-5.42-2.46-19.34-3-25.5-3.17-5-2-10.62-4-14.13-4.41-5.92-.66-19.33,3.09-25.24,4.87-5.38-.39-11.34-.54-14.8.17-5.83,1.2-17.42,8.92-22.49,12.43-5.25,1.29-11,3-14,4.73-5.17,3-13.81,13.87-17.55,18.78-4.59,2.85-9.5,6.22-11.88,8.83-4,4.4-8.85,17.46-10.89,23.28-3.48,4.13-7.1,8.86-8.56,12.08-2.45,5.42-3,19.33-3.16,25.5-2,5-4,10.62-4.42,14.13-.66,5.91,3.1,19.33,4.87,25.24-.39,5.38-.54,11.34.17,14.8,1.2,5.82,8.92,17.42,12.43,22.49,1.29,5.25,3,11,4.74,14,2.94,5.17,13.86,13.81,18.77,17.55,2.85,4.59,6.22,9.49,8.84,11.87,4.39,4,17.45,8.86,23.28,10.89,4.12,3.49,8.85,7.11,12.07,8.57,5.42,2.45,19.34,3,25.5,3.16,5,2,10.62,4,14.13,4.42,5.92.66,19.33-3.1,25.24-4.88,5.38.4,11.34.55,14.8-.16,5.83-1.2,17.42-8.92,22.49-12.44,5.25-1.29,11-3,14-4.73,5.17-2.94,13.81-13.86,17.55-18.77,4.59-2.85,9.5-6.23,11.88-8.84,4-4.39,8.85-17.45,10.89-23.28,3.48-4.12,7.1-8.85,8.56-12.07,2.45-5.42,3-19.34,3.16-25.51,2-5,4-10.61,4.42-14.12C769.57,275.44,765.81,262,764,256.12Zm-68.78,98.31-5.84,25.66L668.7,367.73l-13.48,22.6-15.88-18.16-19.81,17.32L610,367.32l-24.19,10.35-2.18-24L557.46,356l5.36-23.53-25.66-5.84L549.52,306l-22.6-13.48,18.16-15.88-17.33-19.81,22.18-9.49L539.57,223.1l24-2.18-2.38-26.21,23.52,5.36,5.84-25.66,20.72,12.36,13.48-22.6,15.88,18.16L660.47,165,670,187.18l24.19-10.36,2.18,24,26.21-2.38L717.18,222l25.66,5.84-12.36,20.72L753.08,262l-18.16,15.88,17.33,19.81-22.18,9.49,10.36,24.19-24,2.18,2.38,26.2Z"/><path class="e" d="M529.31,682.34c-.15-4-1-16.65-5.38-23.45l-.75-1.12c-1.55-3.61-6.87-15.2-13.44-20-.36-.27-.73-.53-1.11-.79-2.75-2.83-11.86-11.72-19.69-13.82l-1.32-.34c-3.58-1.66-15.27-6.69-23.33-5.85l-1.36.16c-3.94-.26-16.66-.77-23.88,2.91l-1.19.62c-3.75,1.16-15.84,5.25-21.27,11.28l-.88,1c-3.09,2.43-12.91,10.57-15.82,18.15-.16.42-.32.85-.47,1.27-2,3.4-8.26,14.5-8.26,22.6,0,.45,0,.91,0,1.36-.68,3.9-2.51,16.49.39,24,.47,1.24,1,2.47,1.54,3.7l-.44-.07s3.59,16.15,10.43,23l1,.94c2.27,3.21,9.88,13.44,17.29,16.74l1.26.54c3.28,2.2,14,9,22.13,9.43l1.36.05c3.85.88,16.33,3.37,24,.87l1.29-.44c3.91-.56,16.46-2.7,22.76-7.8l1-.86c3.43-1.92,14.4-8.43,18.46-15.45.23-.39.45-.79.67-1.19,2.53-3,10.42-13,11.69-21,.07-.44.13-.89.19-1.35,1.28-3.73,5.06-15.89,3.38-23.81C529.52,683.23,529.42,682.78,529.31,682.34Zm-65.8,46.27L456.07,739l-7.87-11.94-10.66,7-3.07-14L422,722.84l2.14-14.14-15-2.28,9.12-14.26-10.76-6.88L419,676.79l-7.58-10.28,13.8-3.8-3.39-12.31,14.24,1.39,1.25-12.71,12.79,6.41,5.72-11.42,9.65,10.57,9.43-8.61,5.22,13.32L492,644.69l.1,14.31,12.77-.09-5,13.4,12,4.49-9.5,10.7,9.55,8.48-12.71,6.58L505,713.9l-14.22,1.6,1.42,12.69-13.84-3.61-3.23,12.36Z"/><path class="e" d="M709.3,682.34c-.15-4-1-16.65-5.38-23.45-.24-.37-.5-.75-.75-1.12-1.55-3.61-6.87-15.2-13.43-20l-1.12-.79c-2.75-2.83-11.86-11.72-19.69-13.82l-1.32-.34c-3.58-1.66-15.27-6.69-23.33-5.85l-1.35.16c-3.95-.26-16.67-.77-23.88,2.91l-1.2.62c-3.75,1.16-15.84,5.25-21.26,11.28-.3.33-.6.67-.89,1-3.09,2.43-12.91,10.57-15.82,18.15-.16.42-.32.85-.47,1.27-2,3.4-8.26,14.5-8.26,22.6,0,.45,0,.91,0,1.36-.67,3.9-2.51,16.49.39,24,.47,1.24,1,2.47,1.54,3.7l-.44-.07s3.59,16.15,10.43,23l1,.94c2.27,3.21,9.88,13.44,17.3,16.74l1.25.54c3.28,2.2,14,9,22.13,9.43l1.36.05c3.85.88,16.34,3.37,24,.87l1.29-.44c3.91-.56,16.46-2.7,22.76-7.8l1-.86c3.44-1.92,14.41-8.43,18.46-15.45.23-.39.45-.79.67-1.19,2.53-3,10.42-13,11.69-21,.07-.44.13-.89.2-1.35,1.27-3.73,5.06-15.89,3.37-23.81C709.51,683.23,709.41,682.78,709.3,682.34Zm-65.79,46.27L636.07,739l-7.87-11.94-10.66,7-3.07-14L602,722.84l2.14-14.14-15-2.28,9.12-14.26-10.76-6.88L599,676.79l-7.58-10.28,13.8-3.8-3.39-12.31,14.24,1.39,1.25-12.71,12.79,6.41,5.72-11.42,9.65,10.57,9.43-8.61,5.22,13.32L672,644.69l.1,14.31,12.77-.09-5,13.4,12,4.49-9.5,10.7,9.55,8.48-12.71,6.58L685,713.9l-14.22,1.6,1.42,12.69-13.84-3.61-3.23,12.36Z"/><path class="e" d="M349.32,682.34c-.15-4-1-16.65-5.38-23.45l-.75-1.12c-1.55-3.61-6.87-15.2-13.44-20-.36-.27-.73-.53-1.11-.79-2.75-2.83-11.86-11.72-19.69-13.82l-1.32-.34c-3.58-1.66-15.28-6.69-23.33-5.85l-1.36.16c-3.94-.26-16.66-.77-23.88,2.91l-1.19.62c-3.75,1.16-15.84,5.25-21.27,11.28-.3.33-.59.67-.89,1-3.09,2.43-12.9,10.57-15.81,18.15l-.48,1.27c-2,3.4-8.25,14.5-8.25,22.6,0,.45,0,.91,0,1.36-.68,3.9-2.52,16.49.39,24,.47,1.24,1,2.47,1.54,3.7l-.44-.07s3.58,16.15,10.42,23l1,.94c2.26,3.21,9.88,13.44,17.29,16.74l1.25.54c3.29,2.2,14.05,9,22.14,9.43l1.36.05c3.85.88,16.33,3.37,24,.87l1.29-.44c3.91-.56,16.46-2.7,22.75-7.8l1-.86c3.43-1.92,14.4-8.43,18.46-15.45.23-.39.45-.79.67-1.19,2.53-3,10.42-13,11.68-21,.08-.44.14-.89.2-1.35,1.28-3.73,5.06-15.89,3.38-23.81Zm-65.81,46.27L276.07,739l-7.87-11.94-10.66,7-3.07-14L242,722.84l2.14-14.14-15-2.28,9.12-14.26-10.76-6.88L239,676.79l-7.58-10.28,13.8-3.8-3.39-12.31,14.24,1.39,1.25-12.71,12.79,6.41,5.72-11.42,9.65,10.57,9.43-8.61,5.22,13.32L312,644.69l.1,14.31,12.77-.09-5,13.4,12,4.49-9.5,10.7,9.55,8.48-12.71,6.58L325,713.9l-14.22,1.6,1.42,12.69-13.84-3.61-3.23,12.36Z"/><path class="e" d="M169.33,682.34c-.15-4-1-16.65-5.39-23.45l-.74-1.12c-1.55-3.61-6.88-15.2-13.44-20-.36-.27-.74-.53-1.11-.79-2.75-2.83-11.86-11.72-19.69-13.82l-1.32-.34c-3.59-1.66-15.28-6.69-23.33-5.85l-1.36.16c-3.94-.26-16.66-.77-23.88,2.91l-1.19.62C74.12,621.85,62,625.94,56.61,632c-.3.33-.59.67-.89,1-3.09,2.43-12.9,10.57-15.81,18.15l-.48,1.27c-2,3.4-8.25,14.5-8.25,22.6,0,.45,0,.91,0,1.36-.68,3.9-2.52,16.49.39,24,.47,1.24,1,2.47,1.53,3.7l-.43-.07s3.58,16.15,10.42,23l1,.94c2.26,3.21,9.88,13.44,17.29,16.74l1.25.54c3.28,2.2,14,9,22.14,9.43l1.36.05c3.85.88,16.33,3.37,24,.87l1.29-.44c3.91-.56,16.46-2.7,22.75-7.8l1-.86c3.43-1.92,14.4-8.43,18.46-15.45l.67-1.19c2.53-3,10.42-13,11.68-21,.07-.44.14-.89.2-1.35,1.28-3.73,5.06-15.89,3.38-23.81Zm-65.82,46.27L96.07,739,88.2,727.05l-10.66,7-3.07-14L62,722.84l2.14-14.14-15-2.28,9.12-14.26-10.76-6.88L59,676.79,51.4,666.51l13.8-3.8L61.81,650.4l14.24,1.39,1.25-12.71,12.79,6.41,5.72-11.42,9.65,10.57,9.43-8.61,5.22,13.32L132,644.69l.1,14.31,12.77-.09-5,13.4,12,4.49-9.5,10.7,9.55,8.48-12.71,6.58L145,713.9l-14.22,1.6,1.42,12.69-13.84-3.61-3.23,12.36Z"/><path class="e" d="M1111.54,700.41c.47,1.24,1,2.47,1.53,3.7l-.43-.07s3.58,16.15,10.42,23l1,.94c2.26,3.21,9.88,13.44,17.29,16.74l1.25.54c3.28,2.2,14,9,22.13,9.43l1.37.05c3.85.88,16.33,3.37,24,.87l1.29-.44c3.91-.56,16.46-2.7,22.75-7.8l1-.86c3.43-1.92,14.4-8.43,18.46-15.45l.67-1.19c2.52-3,10.41-13,11.68-21,.07-.44.14-.89.2-1.35,1.27-3.73,5.06-15.89,3.38-23.81l-.3-1.33c-.15-4-1-16.65-5.39-23.45-.24-.37-.49-.75-.75-1.12-1.54-3.61-6.87-15.2-13.43-20l-1.11-.79c-2.75-2.83-11.87-11.72-19.69-13.82l-1.32-.34c-3.59-1.66-15.28-6.69-23.34-5.85l-1.35.16c-3.94-.26-16.66-.77-23.88,2.91l-1.19.62c-3.76,1.16-15.84,5.25-21.27,11.28-.3.33-.59.67-.89,1-3.09,2.43-12.91,10.57-15.81,18.15-.17.42-.32.85-.48,1.27-2,3.4-8.25,14.5-8.25,22.6,0,.45,0,.91,0,1.36C1110.47,680.26,1108.63,692.85,1111.54,700.41Zm58.55-54.92,5.72-11.42,9.65,10.57,9.43-8.61,5.22,13.32,11.89-4.66.1,14.31,12.77-.09-5,13.4,12,4.49-9.5,10.7,9.55,8.48-12.71,6.58L1225,713.9l-14.22,1.6,1.42,12.69-13.84-3.61-3.23,12.36-11.63-8.33L1176.07,739l-7.87-11.94-10.66,7-3.07-14L1142,722.84l2.14-14.14-15-2.28,9.12-14.26-10.76-6.88,11.52-8.49-7.58-10.28,13.8-3.8-3.39-12.31,14.24,1.39,1.25-12.71Z"/><path class="e" d="M1069.29,682.34c-.15-4-1-16.65-5.39-23.45-.24-.37-.49-.75-.75-1.12-1.54-3.61-6.87-15.2-13.43-20l-1.11-.79c-2.76-2.83-11.87-11.72-19.69-13.82l-1.32-.34c-3.59-1.66-15.28-6.69-23.34-5.85l-1.35.16c-3.94-.26-16.66-.77-23.88,2.91l-1.19.62c-3.76,1.16-15.84,5.25-21.27,11.28-.3.33-.59.67-.89,1-3.09,2.43-12.91,10.57-15.82,18.15-.16.42-.31.85-.47,1.27-2,3.4-8.25,14.5-8.25,22.6,0,.45,0,.91,0,1.36-.67,3.9-2.51,16.49.39,24,.48,1.24,1,2.47,1.54,3.7l-.44-.07s3.59,16.15,10.43,23l1,.94c2.27,3.21,9.89,13.44,17.3,16.74l1.25.54c3.28,2.2,14,9,22.13,9.43l1.36.05c3.86.88,16.34,3.37,24,.87l1.3-.44c3.91-.56,16.45-2.7,22.75-7.8l1-.86c3.43-1.92,14.4-8.43,18.46-15.45l.66-1.19c2.53-3,10.42-13,11.69-21,.07-.44.14-.89.2-1.35,1.27-3.73,5.06-15.89,3.37-23.81C1069.49,683.23,1069.39,682.78,1069.29,682.34Zm-65.78,46.27L996.07,739l-7.87-11.94-10.66,7-3.07-14L962,722.84l2.14-14.14-15-2.28,9.12-14.26-10.76-6.88L959,676.79l-7.58-10.28,13.8-3.8-3.39-12.31,14.24,1.39,1.25-12.71,12.79,6.41,5.72-11.42,9.65,10.57,9.43-8.61,5.22,13.32,11.89-4.66.1,14.31,12.77-.09-5,13.4,12,4.49-9.5,10.7,9.55,8.48-12.71,6.58L1045,713.9l-14.22,1.6,1.42,12.69-13.84-3.61-3.23,12.36Z"/><path class="e" d="M889.29,682.34c-.15-4-1-16.65-5.38-23.45-.24-.37-.5-.75-.75-1.12-1.55-3.61-6.87-15.2-13.43-20l-1.11-.79c-2.76-2.83-11.87-11.72-19.69-13.82l-1.32-.34c-3.59-1.66-15.28-6.69-23.34-5.85l-1.35.16c-3.94-.26-16.66-.77-23.88,2.91l-1.19.62c-3.76,1.16-15.84,5.25-21.27,11.28-.3.33-.6.67-.89,1-3.09,2.43-12.91,10.57-15.82,18.15-.16.42-.32.85-.47,1.27-2,3.4-8.25,14.5-8.25,22.6,0,.45,0,.91,0,1.36-.67,3.9-2.51,16.49.39,24,.47,1.24,1,2.47,1.54,3.7l-.44-.07s3.59,16.15,10.43,23l1,.94c2.27,3.21,9.89,13.44,17.3,16.74l1.25.54c3.28,2.2,14,9,22.13,9.43l1.36.05c3.85.88,16.34,3.37,24,.87l1.29-.44c3.91-.56,16.46-2.7,22.76-7.8l1-.86c3.44-1.92,14.41-8.43,18.46-15.45.23-.39.45-.79.67-1.19,2.53-3,10.42-13,11.69-21,.07-.44.13-.89.2-1.35,1.27-3.73,5.06-15.89,3.37-23.81C889.5,683.23,889.4,682.78,889.29,682.34Zm-65.78,46.27L816.07,739l-7.87-11.94-10.66,7-3.07-14L782,722.84l2.14-14.14-15-2.28,9.12-14.26-10.76-6.88L779,676.79l-7.58-10.28,13.8-3.8-3.39-12.31,14.24,1.39,1.25-12.71,12.79,6.41,5.72-11.42,9.65,10.57,9.43-8.61,5.22,13.32L852,644.69l.1,14.31,12.77-.09-5,13.4,12,4.49-9.5,10.7,9.55,8.48-12.71,6.58L865,713.9l-14.22,1.6,1.42,12.69-13.84-3.61-3.23,12.36Z"/><path class="e" d="M529.61,857c-.09-.44-.19-.88-.3-1.33-.15-3.94-1-16.65-5.38-23.44l-.75-1.12c-1.55-3.62-6.87-15.21-13.44-20l-1.11-.78c-2.75-2.84-11.86-11.73-19.69-13.82l-1.32-.34c-3.58-1.66-15.27-6.7-23.33-5.85l-1.36.16c-3.94-.26-16.66-.78-23.88,2.9l-1.19.63c-3.75,1.16-15.84,5.24-21.27,11.27l-.88,1c-3.09,2.43-12.91,10.57-15.82,18.14-.16.42-.32.85-.47,1.28-2,3.39-8.26,14.49-8.26,22.6,0,.45,0,.9,0,1.36-.68,3.89-2.51,16.49.39,24.05.47,1.23,1,2.47,1.54,3.69l-.44-.06s3.59,16.14,10.43,23c.31.32.64.63,1,.94,2.27,3.22,9.88,13.45,17.29,16.75l1.26.54c3.28,2.2,14,9,22.13,9.42.45,0,.9,0,1.36.06,3.85.87,16.33,3.37,24,.87l1.29-.44c3.91-.56,16.46-2.71,22.76-7.81l1-.86c3.43-1.91,14.4-8.42,18.46-15.45.23-.39.45-.78.67-1.18,2.53-3,10.42-13,11.69-21,.07-.45.13-.9.19-1.35C527.51,877.06,531.29,864.91,529.61,857Zm-66.1,44.63L456.07,912l-7.87-11.94-10.66,7-3.07-14L422,895.84l2.14-14.14-15-2.28,9.12-14.26-10.76-6.88L419,849.79l-7.58-10.28,13.8-3.8-3.39-12.31,14.24,1.39,1.25-12.71,12.79,6.41,5.72-11.42,9.65,10.57,9.43-8.61,5.22,13.32L492,817.69l.1,14.31,12.77-.09-5,13.4,12,4.49-9.5,10.7,9.55,8.48-12.71,6.58L505,886.9l-14.22,1.6,1.42,12.69-13.84-3.61-3.23,12.36Z"/><path class="e" d="M709.6,857c-.09-.44-.19-.88-.3-1.33-.15-3.94-1-16.65-5.38-23.44-.24-.38-.5-.75-.75-1.12-1.55-3.62-6.87-15.21-13.43-20l-1.12-.78c-2.75-2.84-11.86-11.73-19.69-13.82l-1.32-.34c-3.58-1.66-15.27-6.7-23.33-5.85l-1.35.16c-3.95-.26-16.67-.78-23.88,2.9l-1.2.63c-3.75,1.16-15.84,5.24-21.26,11.27-.3.33-.6.68-.89,1-3.09,2.43-12.91,10.57-15.82,18.14-.16.42-.32.85-.47,1.28-2,3.39-8.26,14.49-8.26,22.6,0,.45,0,.9,0,1.36-.67,3.89-2.51,16.49.39,24.05.47,1.23,1,2.47,1.54,3.69l-.44-.06s3.59,16.14,10.43,23c.31.32.64.63,1,.94,2.27,3.22,9.88,13.45,17.3,16.75l1.25.54c3.28,2.2,14,9,22.13,9.42.45,0,.91,0,1.36.06,3.85.87,16.34,3.37,24,.87l1.29-.44c3.91-.56,16.46-2.71,22.76-7.81l1-.86c3.44-1.91,14.41-8.42,18.46-15.45.23-.39.45-.78.67-1.18,2.53-3,10.42-13,11.69-21,.07-.45.13-.9.2-1.35C707.5,877.06,711.29,864.91,709.6,857Zm-66.09,44.63L636.07,912l-7.87-11.94-10.66,7-3.07-14L602,895.84l2.14-14.14-15-2.28,9.12-14.26-10.76-6.88L599,849.79l-7.58-10.28,13.8-3.8-3.39-12.31,14.24,1.39,1.25-12.71,12.79,6.41,5.72-11.42,9.65,10.57,9.43-8.61,5.22,13.32L672,817.69l.1,14.31,12.77-.09-5,13.4,12,4.49-9.5,10.7,9.55,8.48-12.71,6.58L685,886.9l-14.22,1.6,1.42,12.69-13.84-3.61-3.23,12.36Z"/><path class="e" d="M349.62,857l-.3-1.33c-.15-3.94-1-16.65-5.38-23.44l-.75-1.12c-1.55-3.62-6.87-15.21-13.44-20l-1.11-.78c-2.75-2.84-11.86-11.73-19.69-13.82l-1.32-.34c-3.58-1.66-15.28-6.7-23.33-5.85l-1.36.16c-3.94-.26-16.66-.78-23.88,2.9l-1.19.63c-3.75,1.16-15.84,5.24-21.27,11.27-.3.33-.59.68-.89,1-3.09,2.43-12.9,10.57-15.81,18.14l-.48,1.28c-2,3.39-8.25,14.49-8.25,22.6,0,.45,0,.9,0,1.36-.68,3.89-2.52,16.49.39,24.05.47,1.23,1,2.47,1.54,3.69l-.44-.06s3.58,16.14,10.42,23l1,.94c2.26,3.22,9.88,13.45,17.29,16.75l1.25.54c3.29,2.2,14.05,9,22.14,9.42.45,0,.9,0,1.36.06,3.85.87,16.33,3.37,24,.87l1.29-.44c3.91-.56,16.46-2.71,22.75-7.81l1-.86c3.43-1.91,14.4-8.42,18.46-15.45.23-.39.45-.78.67-1.18,2.53-3,10.42-13,11.68-21,.08-.45.14-.9.2-1.35C347.52,877.06,351.3,864.91,349.62,857Zm-66.11,44.63L276.07,912l-7.87-11.94-10.66,7-3.07-14L242,895.84l2.14-14.14-15-2.28,9.12-14.26-10.76-6.88L239,849.79l-7.58-10.28,13.8-3.8-3.39-12.31,14.24,1.39,1.25-12.71,12.79,6.41,5.72-11.42,9.65,10.57,9.43-8.61,5.22,13.32L312,817.69l.1,14.31,12.77-.09-5,13.4,12,4.49-9.5,10.7,9.55,8.48-12.71,6.58L325,886.9l-14.22,1.6,1.42,12.69-13.84-3.61-3.23,12.36Z"/><path class="e" d="M169.63,857l-.3-1.33c-.15-3.94-1-16.65-5.39-23.44-.24-.38-.49-.75-.74-1.12-1.55-3.62-6.88-15.21-13.44-20l-1.11-.78c-2.75-2.84-11.86-11.73-19.69-13.82l-1.32-.34c-3.59-1.66-15.28-6.7-23.33-5.85l-1.36.16c-3.94-.26-16.66-.78-23.88,2.9-.4.2-.79.42-1.19.63-3.76,1.16-15.84,5.24-21.27,11.27-.3.33-.59.68-.89,1-3.09,2.43-12.9,10.57-15.81,18.14l-.48,1.28c-2,3.39-8.25,14.49-8.25,22.6,0,.45,0,.9,0,1.36-.68,3.89-2.52,16.49.39,24.05.47,1.23,1,2.47,1.53,3.69l-.43-.06s3.58,16.14,10.42,23l1,.94C46.34,904.5,54,914.73,61.37,918l1.25.54c3.28,2.2,14,9,22.14,9.42.45,0,.9,0,1.36.06,3.85.87,16.33,3.37,24,.87l1.29-.44c3.91-.56,16.46-2.71,22.75-7.81l1-.86c3.43-1.91,14.4-8.42,18.46-15.45.22-.39.45-.78.67-1.18,2.53-3,10.42-13,11.68-21,.07-.45.14-.9.2-1.35C167.53,877.06,171.31,864.91,169.63,857Zm-66.12,44.63L96.07,912,88.2,900.05l-10.66,7-3.07-14L62,895.84l2.14-14.14-15-2.28,9.12-14.26-10.76-6.88L59,849.79,51.4,839.51l13.8-3.8L61.81,823.4l14.24,1.39,1.25-12.71,12.79,6.41,5.72-11.42,9.65,10.57,9.43-8.61,5.22,13.32L132,817.69l.1,14.31,12.77-.09-5,13.4,12,4.49-9.5,10.7,9.55,8.48-12.71,6.58L145,886.9l-14.22,1.6,1.42,12.69-13.84-3.61-3.23,12.36Z"/><path class="e" d="M1249.58,857l-.3-1.33c-.15-3.94-1-16.65-5.39-23.44-.24-.38-.49-.75-.75-1.12-1.54-3.62-6.87-15.21-13.43-20l-1.11-.78c-2.75-2.84-11.87-11.73-19.69-13.82l-1.32-.34c-3.59-1.66-15.28-6.7-23.34-5.85l-1.35.16c-3.94-.26-16.66-.78-23.88,2.9-.4.2-.79.42-1.19.63-3.76,1.16-15.84,5.24-21.27,11.27-.3.33-.59.68-.89,1-3.09,2.43-12.91,10.57-15.81,18.14-.17.42-.32.85-.48,1.28-2,3.39-8.25,14.49-8.25,22.6,0,.45,0,.9,0,1.36-.67,3.89-2.51,16.49.4,24.05.47,1.23,1,2.47,1.53,3.69l-.43-.06s3.58,16.14,10.42,23l1,.94c2.26,3.22,9.88,13.45,17.29,16.75l1.25.54c3.28,2.2,14,9,22.13,9.42.45,0,.91,0,1.37.06,3.85.87,16.33,3.37,24,.87l1.29-.44c3.91-.56,16.46-2.71,22.75-7.81l1-.86c3.43-1.91,14.4-8.42,18.46-15.45l.67-1.18c2.52-3,10.41-13,11.68-21,.07-.45.14-.9.2-1.35C1247.47,877.06,1251.26,864.91,1249.58,857Zm-66.07,44.63L1176.07,912l-7.87-11.94-10.66,7-3.07-14L1142,895.84l2.14-14.14-15-2.28,9.12-14.26-10.76-6.88,11.52-8.49-7.58-10.28,13.8-3.8-3.39-12.31,14.24,1.39,1.25-12.71,12.79,6.41,5.72-11.42,9.65,10.57,9.43-8.61,5.22,13.32,11.89-4.66.1,14.31,12.77-.09-5,13.4,12,4.49-9.5,10.7,9.55,8.48-12.71,6.58L1225,886.9l-14.22,1.6,1.42,12.69-13.84-3.61-3.23,12.36Z"/><path class="e" d="M1069.58,857c-.09-.44-.19-.88-.29-1.33-.15-3.94-1-16.65-5.39-23.44-.24-.38-.49-.75-.75-1.12-1.54-3.62-6.87-15.21-13.43-20l-1.11-.78c-2.76-2.84-11.87-11.73-19.69-13.82l-1.32-.34c-3.59-1.66-15.28-6.7-23.34-5.85l-1.35.16c-3.94-.26-16.66-.78-23.88,2.9-.4.2-.8.42-1.19.63-3.76,1.16-15.84,5.24-21.27,11.27-.3.33-.59.68-.89,1-3.09,2.43-12.91,10.57-15.82,18.14-.16.42-.31.85-.47,1.28-2,3.39-8.25,14.49-8.25,22.6,0,.45,0,.9,0,1.36-.67,3.89-2.51,16.49.39,24.05.48,1.23,1,2.47,1.54,3.69l-.44-.06s3.59,16.14,10.43,23c.31.32.64.63,1,.94,2.27,3.22,9.89,13.45,17.3,16.75l1.25.54c3.28,2.2,14,9,22.13,9.42.45,0,.91,0,1.36.06,3.86.87,16.34,3.37,24,.87l1.3-.44c3.91-.56,16.45-2.71,22.75-7.81l1-.86c3.43-1.91,14.4-8.42,18.46-15.45l.66-1.18c2.53-3,10.42-13,11.69-21,.07-.45.14-.9.2-1.35C1067.48,877.06,1071.27,864.91,1069.58,857Zm-66.07,44.63L996.07,912l-7.87-11.94-10.66,7-3.07-14L962,895.84l2.14-14.14-15-2.28,9.12-14.26-10.76-6.88L959,849.79l-7.58-10.28,13.8-3.8-3.39-12.31,14.24,1.39,1.25-12.71,12.79,6.41,5.72-11.42,9.65,10.57,9.43-8.61,5.22,13.32,11.89-4.66.1,14.31,12.77-.09-5,13.4,12,4.49-9.5,10.7,9.55,8.48-12.71,6.58L1045,886.9l-14.22,1.6,1.42,12.69-13.84-3.61-3.23,12.36Z"/><path class="e" d="M889.59,857c-.09-.44-.19-.88-.3-1.33-.15-3.94-1-16.65-5.38-23.44-.24-.38-.5-.75-.75-1.12-1.55-3.62-6.87-15.21-13.43-20l-1.11-.78c-2.76-2.84-11.87-11.73-19.69-13.82l-1.32-.34c-3.59-1.66-15.28-6.7-23.34-5.85l-1.35.16c-3.94-.26-16.66-.78-23.88,2.9-.4.2-.8.42-1.19.63-3.76,1.16-15.84,5.24-21.27,11.27-.3.33-.6.68-.89,1-3.09,2.43-12.91,10.57-15.82,18.14-.16.42-.32.85-.47,1.28-2,3.39-8.25,14.49-8.25,22.6,0,.45,0,.9,0,1.36-.67,3.89-2.51,16.49.39,24.05.47,1.23,1,2.47,1.54,3.69l-.44-.06s3.59,16.14,10.43,23c.31.32.64.63,1,.94,2.27,3.22,9.89,13.45,17.3,16.75l1.25.54c3.28,2.2,14,9,22.13,9.42.45,0,.91,0,1.36.06,3.85.87,16.34,3.37,24,.87l1.29-.44c3.91-.56,16.46-2.71,22.76-7.81.35-.28.69-.57,1-.86,3.44-1.91,14.41-8.42,18.46-15.45.23-.39.45-.78.67-1.18,2.53-3,10.42-13,11.69-21,.07-.45.13-.9.2-1.35C887.49,877.06,891.28,864.91,889.59,857Zm-66.08,44.63L816.07,912l-7.87-11.94-10.66,7-3.07-14L782,895.84l2.14-14.14-15-2.28,9.12-14.26-10.76-6.88L779,849.79l-7.58-10.28,13.8-3.8-3.39-12.31,14.24,1.39,1.25-12.71,12.79,6.41,5.72-11.42,9.65,10.57,9.43-8.61,5.22,13.32L852,817.69l.1,14.31,12.77-.09-5,13.4,12,4.49-9.5,10.7,9.55,8.48-12.71,6.58L865,886.9l-14.22,1.6,1.42,12.69-13.84-3.61-3.23,12.36Z"/></svg>