<svg xmlns="http://www.w3.org/2000/svg" viewBox="0 0 1280 960"><defs><style>.a{fill:#e6e7e8;}.b{fill:#fff;}.c{fill:#e66a2c;}.d{fill:#4f3590;}.e{fill:#cddc29;}</style></defs><rect class="a" width="1280" height="960"/><circle class="b" cx="639.5" cy="219.5" r="145.5"/><circle class="b" cx="202.5" cy="611.5" r="56.5"/><circle class="b" cx="494.5" cy="611.5" r="56.5"/><circle class="b" cx="785.5" cy="611.5" r="56.5"/><circle class="b" cx="1077.5" cy="612.5" r="56.5"/><rect class="c" x="491" y="679" width="6" height="73"/><polygon class="c" points="655 818 649 818 649 755 339 755 339 818 333 818 333 749 655 749 655 818"/><rect class="c" x="491" y="467" width="6" height="76"/><rect class="c" x="783" y="467" width="6" height="76"/><path class="d" d="M788.18,194.18c.47-6.43.65-13.55-.2-17.68-1.44-7-10.65-20.81-14.85-26.87-1.55-6.27-3.57-13.09-5.66-16.76-3.51-6.17-16.56-16.5-22.43-21-3.4-5.48-7.43-11.35-10.55-14.19-5.25-4.79-20.85-10.58-27.81-13-4.93-4.16-10.58-8.49-14.42-10.23-6.48-2.94-23.11-3.62-30.48-3.78-6-2.44-12.68-4.81-16.87-5.28-7.07-.78-23.09,3.7-30.15,5.83-6.43-.47-13.55-.66-17.68.19-7,1.44-20.82,10.66-26.87,14.86-6.27,1.54-13.09,3.56-16.76,5.65-6.18,3.52-16.5,16.56-21,22.43-5.48,3.4-11.34,7.44-14.18,10.55-4.79,5.26-10.58,20.86-13,27.82-4.17,4.93-8.5,10.57-10.24,14.42-2.93,6.47-3.61,23.1-3.77,30.47-2.44,6-4.81,12.68-5.28,16.88-.79,7.06,3.7,23.08,5.82,30.14-.47,6.44-.65,13.55.2,17.68,1.44,7,10.65,20.82,14.85,26.88,1.55,6.26,3.57,13.08,5.66,16.75,3.51,6.18,16.56,16.51,22.43,21,3.4,5.48,7.43,11.34,10.55,14.19,5.25,4.79,20.85,10.58,27.81,13,4.93,4.16,10.58,8.49,14.42,10.23,6.48,2.93,23.11,3.62,30.48,3.78,6,2.43,12.68,4.81,16.87,5.27,7.07.79,23.09-3.7,30.15-5.82,6.43.47,13.55.65,17.68-.2,7-1.43,20.82-10.65,26.87-14.85,6.27-1.54,13.09-3.57,16.76-5.65,6.18-3.52,16.5-16.57,21-22.43,5.48-3.41,11.34-7.44,14.18-10.56,4.79-5.25,10.58-20.85,13-27.81,4.17-4.93,8.5-10.58,10.24-14.42,2.93-6.48,3.61-23.1,3.77-30.47,2.44-6,4.81-12.69,5.28-16.88C794.79,217.27,790.3,201.24,788.18,194.18ZM706,311.63l-7,30.65-24.74-14.77-16.11,27-19-21.69-23.66,20.7L604.21,327l-28.9,12.38-2.6-28.7-31.31,2.83,6.4-28.1-30.66-7,14.77-24.75-27-16.11,21.69-19L505.91,195l26.49-11.34L520,154.73l28.7-2.6-2.84-31.31,28.1,6.4,7-30.65,24.74,14.76,16.11-27,19,21.69,23.66-20.7,11.34,26.49,28.9-12.37,2.6,28.7,31.31-2.84-6.4,28.1,30.66,7-14.77,24.75,27,16.1-21.69,19,20.69,23.66L747.6,255.22,760,284.12l-28.7,2.6,2.84,31.3Z"/><path class="e" d="M272.51,608.05c-.09-.44-.19-.88-.29-1.33-.16-3.94-1-16.65-5.39-23.44-.24-.38-.5-.75-.75-1.12-1.54-3.62-6.87-15.21-13.43-20l-1.11-.78c-2.76-2.84-11.87-11.73-19.69-13.83l-1.32-.33c-3.59-1.66-15.28-6.7-23.34-5.85l-1.35.16c-3.94-.27-16.66-.78-23.88,2.9-.4.2-.8.42-1.19.63-3.76,1.16-15.84,5.24-21.27,11.27-.3.33-.6.67-.89,1-3.09,2.43-12.91,10.57-15.82,18.14-.16.42-.32.85-.47,1.28-2,3.39-8.25,14.49-8.25,22.6,0,.45,0,.9,0,1.36-.67,3.89-2.51,16.49.39,24,.48,1.23,1,2.47,1.54,3.69l-.44-.06s3.59,16.14,10.43,23c.31.32.64.63,1,.94,2.27,3.22,9.89,13.45,17.3,16.75l1.25.54c3.28,2.2,14,9,22.13,9.42l1.36.06c3.86.87,16.34,3.37,24,.86.43-.13.86-.28,1.29-.43,3.91-.56,16.46-2.71,22.76-7.81.35-.28.69-.57,1-.86,3.44-1.91,14.41-8.42,18.46-15.45.23-.39.45-.79.67-1.19,2.53-3,10.42-13,11.69-21,.07-.45.14-.9.2-1.35C270.41,628.13,274.2,616,272.51,608.05Zm-66,44.56L199.07,663l-7.87-11.94-10.66,7-3.07-14L165,646.84l2.14-14.14-15-2.28,9.12-14.26-10.76-6.88L162,600.79l-7.58-10.28,13.8-3.8-3.39-12.31,14.24,1.39,1.25-12.71,12.79,6.41,5.72-11.42,9.65,10.57,9.43-8.61,5.22,13.32L235,568.69l.1,14.31,12.77-.09-5,13.4,12,4.49-9.5,10.7,9.55,8.48-12.71,6.58L248,637.9l-14.22,1.6,1.42,12.69-13.84-3.61-3.23,12.36Z"/><path class="e" d="M563.91,608.05l-.3-1.33c-.15-3.94-1-16.65-5.39-23.44-.24-.38-.49-.75-.75-1.12-1.54-3.62-6.87-15.21-13.43-20l-1.11-.78c-2.76-2.84-11.87-11.73-19.69-13.83l-1.32-.33c-3.59-1.66-15.28-6.7-23.34-5.85l-1.35.16c-3.94-.27-16.66-.78-23.88,2.9-.4.2-.79.42-1.19.63-3.76,1.16-15.84,5.24-21.27,11.27-.3.33-.59.67-.89,1-3.09,2.43-12.91,10.57-15.81,18.14-.17.42-.32.85-.48,1.28-2,3.39-8.25,14.49-8.25,22.6,0,.45,0,.9,0,1.36-.67,3.89-2.51,16.49.39,24,.48,1.23,1,2.47,1.54,3.69l-.43-.06s3.58,16.14,10.42,23l1,.94c2.26,3.22,9.88,13.45,17.29,16.75l1.25.54c3.28,2.19,14,9,22.13,9.42l1.37.06c3.85.87,16.33,3.37,24,.86l1.29-.43c3.91-.56,16.45-2.71,22.75-7.81l1-.86c3.43-1.91,14.4-8.42,18.46-15.45l.66-1.19c2.53-3,10.42-13,11.69-21,.07-.45.14-.9.2-1.35C561.8,628.13,565.59,616,563.91,608.05Zm-66.4,44.56L490.07,663l-7.87-11.94-10.66,7-3.07-14L456,646.84l2.14-14.14-15-2.28,9.12-14.26-10.76-6.88L453,600.79l-7.58-10.28,13.8-3.8-3.39-12.31,14.24,1.39,1.25-12.71,12.79,6.41,5.72-11.42,9.65,10.57,9.43-8.61,5.22,13.32L526,568.69l.1,14.31,12.77-.09-5,13.4,12,4.49-9.5,10.7,9.55,8.48-12.71,6.58L539,637.9l-14.22,1.6,1.42,12.69-13.84-3.61-3.23,12.36Z"/><path class="e" d="M855.3,608.05l-.3-1.33c-.15-3.94-1-16.65-5.38-23.44l-.75-1.12c-1.55-3.62-6.88-15.21-13.44-20l-1.11-.78c-2.75-2.84-11.86-11.73-19.69-13.83l-1.32-.33c-3.59-1.66-15.28-6.7-23.33-5.85l-1.36.16c-3.94-.27-16.66-.78-23.88,2.9-.4.2-.79.42-1.19.63-3.76,1.16-15.84,5.24-21.27,11.27-.3.33-.59.67-.89,1-3.09,2.43-12.9,10.57-15.81,18.14l-.48,1.28c-2,3.39-8.25,14.49-8.25,22.6,0,.45,0,.9,0,1.36-.68,3.89-2.52,16.49.39,24,.47,1.23,1,2.47,1.53,3.69l-.43-.06s3.58,16.14,10.42,23l1,.94c2.26,3.22,9.88,13.45,17.29,16.75l1.25.54c3.29,2.19,14.05,9,22.14,9.42l1.36.06c3.85.87,16.33,3.37,24,.86.43-.13.86-.28,1.29-.43,3.91-.56,16.46-2.71,22.75-7.81l1-.86c3.43-1.91,14.4-8.42,18.46-15.45l.67-1.19c2.53-3,10.42-13,11.68-21,.07-.45.14-.9.2-1.35C853.2,628.13,857,616,855.3,608.05Zm-65.79,44.56L782.07,663l-7.87-11.94-10.66,7-3.07-14L748,646.84l2.14-14.14-15-2.28,9.12-14.26-10.76-6.88L745,600.79l-7.58-10.28,13.8-3.8-3.39-12.31,14.24,1.39,1.25-12.71,12.79,6.41,5.72-11.42,9.65,10.57,9.43-8.61,5.22,13.32L818,568.69l.1,14.31,12.77-.09-5,13.4,12,4.49-9.5,10.7,9.55,8.48-12.71,6.58L831,637.9l-14.22,1.6,1.42,12.69-13.84-3.61-3.23,12.36Z"/><path class="e" d="M1143.31,633.15c1.28-3.74,5.06-15.89,3.38-23.82-.09-.44-.2-.88-.3-1.33-.15-3.94-1-16.65-5.38-23.44l-.75-1.12c-1.55-3.62-6.87-15.21-13.44-20l-1.11-.78c-2.75-2.84-11.86-11.73-19.69-13.82l-1.32-.34c-3.58-1.66-15.27-6.7-23.33-5.85l-1.36.16c-3.94-.27-16.66-.78-23.88,2.9l-1.19.63c-3.75,1.16-15.84,5.24-21.27,11.27l-.88,1c-3.1,2.43-12.91,10.57-15.82,18.14-.16.42-.32.85-.47,1.28-2,3.39-8.26,14.49-8.26,22.6,0,.45,0,.9,0,1.36-.68,3.89-2.51,16.49.39,24.05.47,1.23,1,2.47,1.54,3.69l-.44-.06s3.59,16.14,10.42,23l1,.94c2.26,3.22,9.88,13.45,17.29,16.75l1.26.54c3.28,2.19,14,9,22.13,9.42.45,0,.9,0,1.36.06,3.85.87,16.33,3.37,24,.87l1.29-.44c3.91-.56,16.46-2.71,22.76-7.81l1-.86c3.43-1.91,14.4-8.42,18.46-15.45.23-.39.45-.79.67-1.18,2.53-3,10.42-13,11.69-21C1143.19,634.05,1143.25,633.6,1143.31,633.15Zm-62.8,21.46L1073.07,665l-7.87-11.94-10.66,7-3.07-14L1039,648.84l2.14-14.14-15-2.28,9.12-14.26-10.76-6.88,11.52-8.49-7.58-10.28,13.8-3.8-3.39-12.31,14.24,1.39,1.25-12.71,12.79,6.41,5.72-11.42,9.65,10.57,9.43-8.61,5.22,13.32,11.89-4.66.1,14.31,12.77-.09-5,13.4,12,4.49-9.5,10.7,9.55,8.48-12.71,6.58L1122,639.9l-14.22,1.6,1.42,12.69-13.84-3.61-3.23,12.36Z"/><rect class="c" x="637" y="373" width="6" height="91"/><polygon class="c" points="1080 543 1074 543 1074 470 206 470 206 543 200 543 200 464 1080 464 1080 543"/><circle class="e" cx="336" cy="846" r="29"/><circle class="e" cx="652" cy="846" r="29"/></svg>