<svg xmlns="http://www.w3.org/2000/svg" viewBox="0 0 1280 960"><defs><style>.a{fill:#e6e7e8;}.b{fill:#e66a2c;}.c{fill:#fff;}.d{fill:#4f3590;}.e{fill:#cddc29;}</style></defs><rect class="a" width="1280" height="960"/><polygon class="b" points="588.39 868.14 527.88 835.38 461.45 852.41 521.76 470.09 648.71 485.82 588.39 868.14"/><polygon class="b" points="799.63 854.35 731.78 836.1 672.3 867.38 622.32 483.89 749.65 470.86 799.63 854.35"/><circle class="c" cx="637.92" cy="327.2" r="208.48"/><path class="d" d="M454.54,426.67s-21.33-29.38-24-42.21,1.76-46,2-44.7L487,372.24Z"/><path class="d" d="M431.8,364.32s-11.2-34.54-9.75-47.56,15.88-43.17,15.73-41.88l41.73,47.71Z"/><path class="d" d="M429.44,298s0-36.31,5.42-48.25,28.44-36.15,27.91-35l24.94,58.27Z"/><path class="d" d="M447.69,234.19s11.24-34.53,20.06-44.21S506,164.39,505.1,165.34l5.72,63.13Z"/><path class="d" d="M484.77,179.14s21.35-29.36,32.74-35.84,44.26-12.53,43.13-11.89l-14.07,61.8Z"/><path class="d" d="M537,138.25s29.38-21.33,42.21-24,46,1.76,44.7,2l-32.48,54.43Z"/><path class="d" d="M599.39,115.51s34.54-11.2,47.56-9.76,43.16,15.89,41.88,15.74l-47.71,41.73Z"/><path class="d" d="M665.71,113.15s36.31,0,48.25,5.42,36.15,28.44,35,27.91l-58.27,24.94Z"/><path class="d" d="M729.52,131.4s34.53,11.24,44.21,20.06,25.59,38.22,24.64,37.35l-63.13,5.72Z"/><path class="d" d="M784.56,168.48s29.37,21.35,35.85,32.74,12.53,44.26,11.89,43.13l-61.8-14.07Z"/><path class="d" d="M825.46,220.75s21.33,29.38,24,42.21-1.76,46-2,44.7L793,275.18Z"/><path class="d" d="M848.2,283.1s11.2,34.54,9.75,47.55-15.88,43.17-15.73,41.89l-41.73-47.71Z"/><path class="d" d="M850.56,349.42s0,36.31-5.42,48.25-28.44,36.15-27.91,35l-24.94-58.27Z"/><path class="d" d="M832.31,413.23s-11.24,34.53-20.06,44.21S774,483,774.9,482.08L769.18,419Z"/><path class="d" d="M795.23,468.27s-21.35,29.37-32.74,35.85S718.23,516.65,719.36,516l14.07-61.8Z"/><path class="d" d="M743,509.17s-29.38,21.33-42.21,24-46-1.76-44.7-2l32.48-54.43Z"/><path class="d" d="M680.61,531.91s-34.54,11.2-47.56,9.75-43.16-15.88-41.88-15.73l47.71-41.73Z"/><path class="d" d="M614.29,534.27s-36.31,0-48.25-5.42-36.15-28.44-35-27.91L589.34,476Z"/><path class="d" d="M550.48,516S516,504.78,506.27,496s-25.59-38.23-24.64-37.35l63.13-5.72Z"/><path class="d" d="M495.44,478.94s-29.37-21.35-35.85-32.74-12.53-44.26-11.89-43.13l61.8,14.07Z"/><path class="e" d="M519.69,392.49s-10.89-17.3-17.22-33.77-.31-46-.31-46l48.67,31.14Z"/><path class="e" d="M505.7,350.07s-4-20.06-4-37.7,16.2-43.09,16.2-43.09l34.28,46.51Z"/><path class="e" d="M507.84,305.45s3.49-20.15,9.81-36.62,30.56-34.42,30.56-34.42l15.34,55.71Z"/><path class="e" d="M525.84,264.56s10.47-17.56,22.27-30.67S589,212.71,589,212.71l-5.64,57.5Z"/><path class="e" d="M557.29,232.83s16.07-12.64,31.79-20.65,45.74-5.12,45.74-5.12l-25.88,51.65Z"/><path class="e" d="M598,214.49s19.53-6.05,37.08-7.89,44.54,11.61,44.54,11.61l-42.67,39Z"/><path class="e" d="M642.62,212s20.4,1.36,37.44,5.92,37.43,26.8,37.43,26.8l-53.8,21.07Z"/><path class="e" d="M685.16,225.58s18.57,8.58,32.84,18.94S743.33,283,743.33,283l-57.77.39Z"/><path class="e" d="M720,253.54S734.26,268.2,743.86,283s9.88,45,9.88,45l-54.07-20.33Z"/><path class="e" d="M742.51,292.13s8,18.8,11.72,36.05-6.89,45.51-6.89,45.51l-43.2-38.36Z"/><path class="e" d="M749.69,336.22s.78,20.43-2,37.86-22.74,40-22.74,40l-26.58-51.3Z"/><path class="e" d="M740.59,380s-6.6,19.35-15.41,34.63S689.6,443.8,689.6,443.8l-6.43-57.41Z"/><path class="e" d="M716.42,417.53s-13.09,15.7-26.8,26.8-43.68,14.53-43.68,14.53L660.51,403Z"/><path class="e" d="M680.4,443.94s-17.86,10-34.63,15.42-46-2.09-46-2.09l33.64-47Z"/><path class="e" d="M637.3,455.69s-20.25,2.91-37.86,2-42.18-18.43-42.18-18.43l48.24-31.8Z"/><path class="e" d="M592.85,451.21s-19.94-4.53-36.06-11.71S524,407.18,524,407.18l56.43-12.4Z"/><path class="e" d="M553,431.11s-17-11.38-29.47-23.86-19-41.92-19-41.92L561.61,374Z"/></svg>