<svg xmlns="http://www.w3.org/2000/svg" viewBox="0 0 1280 960"><defs><style>.a{fill:#e6e7e8;}.b{fill:#fff;}.c{fill:#e66a2c;}.d{fill:#4f3590;}.e{fill:#cddc29;}</style></defs><rect class="a" width="1280" height="960"/><circle class="b" cx="637.08" cy="214.08" r="139.08"/><circle class="b" cx="202.91" cy="610.4" r="56.68"/><circle class="b" cx="497.36" cy="610.4" r="56.68"/><circle class="b" cx="785.7" cy="610.4" r="56.68"/><circle class="b" cx="1077.09" cy="610.4" r="56.68"/><rect class="c" x="491.11" y="679.16" width="6" height="72.97"/><polygon class="c" points="655.35 817.86 649.35 817.86 649.35 755.13 339.25 755.13 339.25 817.86 333.25 817.86 333.25 749.13 655.35 749.13 655.35 817.86"/><rect class="c" x="491.3" y="467.47" width="6" height="75.72"/><rect class="c" x="782.7" y="467.47" width="6" height="75.72"/><path class="d" d="M509,292.17S493.89,271.41,492,262.34s1.25-32.47,1.43-31.58l38.46,23Z"/><path class="d" d="M492.89,248.12S485,223.71,486,214.52s11.22-30.51,11.12-29.6l29.48,33.71Z"/><path class="d" d="M491.23,201.26s0-25.66,3.82-34.09,20.1-25.54,19.72-24.71l17.63,41.17Z"/><path class="d" d="M504.12,156.17s7.94-24.4,14.18-31.24,27-18.08,26.39-17.4l4,44.6Z"/><path class="d" d="M530.32,117.28S545.41,96.53,553.45,92s31.27-8.85,30.48-8.4L574,127.22Z"/><path class="d" d="M567.25,88.38S588,73.31,597.08,71.44s32.48,1.25,31.58,1.43l-22.95,38.46Z"/><path class="d" d="M611.3,72.32s24.41-7.92,33.61-6.9,30.5,11.22,29.59,11.12L640.79,106Z"/><path class="d" d="M658.17,70.65s25.65,0,34.09,3.83S717.8,94.57,717,94.19l-41.18,17.63Z"/><path class="d" d="M703.25,83.54s24.4,7.94,31.24,14.18,18.08,27,17.41,26.39l-44.61,4Z"/><path class="d" d="M742.15,109.74s20.75,15.09,25.32,23.13,8.85,31.28,8.41,30.48l-43.68-9.94Z"/><path class="d" d="M771,146.67S786.11,167.44,788,176.5s-1.25,32.48-1.43,31.58l-38.46-22.94Z"/><path class="d" d="M787.11,190.73s7.91,24.4,6.89,33.6-11.22,30.5-11.12,29.6L753.4,220.22Z"/><path class="d" d="M788.77,237.59s0,25.66-3.82,34.09-20.1,25.54-19.72,24.71L747.6,255.22Z"/><path class="d" d="M775.88,282.68s-7.94,24.39-14.18,31.23-27,18.08-26.39,17.41l-4-44.6Z"/><path class="d" d="M749.68,321.57s-15.09,20.75-23.13,25.33-31.27,8.85-30.48,8.4L706,311.63Z"/><path class="d" d="M712.75,350.46S692,365.53,682.92,367.4s-32.48-1.24-31.58-1.42l22.95-38.47Z"/><path class="d" d="M668.7,366.53s-24.41,7.92-33.61,6.89-30.5-11.22-29.59-11.11l33.71-29.49Z"/><path class="d" d="M621.83,368.2s-25.65,0-34.09-3.83S562.2,344.27,563,344.65L604.21,327Z"/><path class="d" d="M576.75,355.3s-24.4-7.94-31.24-14.17-18.08-27-17.41-26.39l44.61-4Z"/><path class="d" d="M537.85,329.11S517.1,314,512.53,306s-8.85-31.27-8.41-30.48l43.68,9.94Z"/><path class="e" d="M143.91,643.32a125.76,125.76,0,0,1-9.44-18.52c-3.46-9-.17-25.24-.17-25.24L161,616.63Z"/><path class="e" d="M136.24,620.06a125.68,125.68,0,0,1-2.17-20.67c0-9.68,8.88-23.63,8.88-23.63l18.79,25.5Z"/><path class="e" d="M137.42,595.59a125.71,125.71,0,0,1,5.37-20.08c3.47-9,16.76-18.87,16.76-18.87L168,587.18Z"/><path class="e" d="M147.28,573.17a125.92,125.92,0,0,1,12.22-16.82c6.47-7.18,22.41-11.61,22.41-11.61l-3.1,31.53Z"/><path class="e" d="M164.53,555.77A125.2,125.2,0,0,1,182,544.45c8.62-4.39,25.08-2.81,25.08-2.81L192.85,570Z"/><path class="e" d="M186.86,545.71a125.43,125.43,0,0,1,20.33-4.32c9.62-1,24.43,6.36,24.43,6.36l-23.4,21.36Z"/><path class="e" d="M211.32,544.33a125.38,125.38,0,0,1,20.53,3.24c9.34,2.51,20.52,14.7,20.52,14.7l-29.5,11.55Z"/><path class="e" d="M234.65,551.79a126.25,126.25,0,0,1,18,10.39c7.82,5.69,13.89,21.08,13.89,21.08l-31.68.21Z"/><path class="e" d="M253.75,567.13a125.74,125.74,0,0,1,13.08,16.15c5.27,8.11,5.42,24.65,5.42,24.65L242.6,596.78Z"/><path class="e" d="M266.09,588.29a125.35,125.35,0,0,1,6.42,19.76c2,9.46-3.77,25-3.77,25l-23.69-21Z"/><path class="e" d="M270,612.46a125.47,125.47,0,0,1-1.08,20.76c-1.51,9.55-12.47,21.94-12.47,21.94L241.9,627Z"/><path class="e" d="M265,636.44a125.1,125.1,0,0,1-8.46,19c-4.83,8.38-19.5,16-19.5,16L233.55,640Z"/><path class="e" d="M251.78,657a124.2,124.2,0,0,1-14.69,14.7c-7.52,6.09-24,8-24,8l8-30.66Z"/><path class="e" d="M232,671.53A124.73,124.73,0,0,1,213,680c-9.19,3-25.21-1.14-25.21-1.14l18.45-25.76Z"/><path class="e" d="M208.4,678a125,125,0,0,1-20.76,1.09C178,678.56,164.51,669,164.51,669L191,651.52Z"/><path class="e" d="M184,675.52a125.61,125.61,0,0,1-19.77-6.42c-8.84-3.94-18-17.73-18-17.73l30.94-6.8Z"/><path class="e" d="M162.15,664.49A125.55,125.55,0,0,1,146,651.41c-6.84-6.84-10.43-23-10.43-23l31.33,4.74Z"/><path class="e" d="M435.3,643.32a125.76,125.76,0,0,1-9.44-18.52c-3.46-9-.17-25.24-.17-25.24l26.69,17.07Z"/><path class="e" d="M427.63,620.06a125.68,125.68,0,0,1-2.17-20.67c0-9.68,8.88-23.63,8.88-23.63l18.8,25.5Z"/><path class="e" d="M428.81,595.59a125.09,125.09,0,0,1,5.38-20.08c3.46-9,16.76-18.87,16.76-18.87l8.4,30.54Z"/><path class="e" d="M438.68,573.17a125.38,125.38,0,0,1,12.21-16.82c6.47-7.18,22.41-11.61,22.41-11.61l-3.1,31.53Z"/><path class="e" d="M455.92,555.77a125.2,125.2,0,0,1,17.43-11.32c8.62-4.39,25.08-2.81,25.08-2.81L484.24,570Z"/><path class="e" d="M478.25,545.71a125.72,125.72,0,0,1,20.33-4.32c9.62-1,24.43,6.36,24.43,6.36l-23.4,21.36Z"/><path class="e" d="M502.71,544.33a125.22,125.22,0,0,1,20.53,3.24c9.34,2.51,20.52,14.7,20.52,14.7l-29.5,11.55Z"/><path class="e" d="M526,551.79a125.65,125.65,0,0,1,18,10.39c7.82,5.69,13.89,21.08,13.89,21.08l-31.68.21Z"/><path class="e" d="M545.14,567.13a124.8,124.8,0,0,1,13.08,16.15c5.27,8.11,5.42,24.65,5.42,24.65L534,596.78Z"/><path class="e" d="M557.48,588.29a126,126,0,0,1,6.43,19.76c2,9.46-3.78,25-3.78,25l-23.69-21Z"/><path class="e" d="M561.42,612.46a126.05,126.05,0,0,1-1.09,20.76c-1.51,9.55-12.47,21.94-12.47,21.94L533.29,627Z"/><path class="e" d="M556.43,636.44a125.66,125.66,0,0,1-8.45,19c-4.84,8.38-19.51,16-19.51,16L525,640Z"/><path class="e" d="M543.18,657a124.69,124.69,0,0,1-14.7,14.7c-7.52,6.09-24,8-24,8l8-30.66Z"/><path class="e" d="M523.42,671.53a124.9,124.9,0,0,1-19,8.45c-9.2,3-25.22-1.14-25.22-1.14l18.45-25.76Z"/><path class="e" d="M499.79,678A125,125,0,0,1,479,679.06c-9.65-.5-23.12-10.11-23.12-10.11l26.45-17.43Z"/><path class="e" d="M475.42,675.52a125.61,125.61,0,0,1-19.77-6.42c-8.84-3.94-18-17.73-18-17.73l30.94-6.8Z"/><path class="e" d="M453.55,664.49a125.3,125.3,0,0,1-16.16-13.08c-6.84-6.84-10.42-23-10.42-23l31.32,4.74Z"/><path class="e" d="M726.7,643.32a124.68,124.68,0,0,1-9.44-18.52c-3.47-9-.18-25.24-.18-25.24l26.69,17.07Z"/><path class="e" d="M719,620.06a125.12,125.12,0,0,1-2.18-20.67c0-9.68,8.88-23.63,8.88-23.63l18.8,25.5Z"/><path class="e" d="M720.2,595.59a125.09,125.09,0,0,1,5.38-20.08c3.46-9,16.76-18.87,16.76-18.87l8.4,30.54Z"/><path class="e" d="M730.07,573.17a125.38,125.38,0,0,1,12.21-16.82c6.47-7.18,22.41-11.61,22.41-11.61l-3.1,31.53Z"/><path class="e" d="M747.31,555.77a125.91,125.91,0,0,1,17.43-11.32c8.62-4.39,25.09-2.81,25.09-2.81L775.64,570Z"/><path class="e" d="M769.65,545.71A125.43,125.43,0,0,1,790,541.39c9.61-1,24.42,6.36,24.42,6.36L791,569.11Z"/><path class="e" d="M794.1,544.33a125.22,125.22,0,0,1,20.53,3.24c9.34,2.51,20.52,14.7,20.52,14.7l-29.5,11.55Z"/><path class="e" d="M817.43,551.79a125.65,125.65,0,0,1,18,10.39c7.83,5.69,13.89,21.08,13.89,21.08l-31.67.21Z"/><path class="e" d="M836.53,567.13a125.38,125.38,0,0,1,13.09,16.15c5.26,8.11,5.41,24.65,5.41,24.65l-29.65-11.15Z"/><path class="e" d="M848.87,588.29a124.85,124.85,0,0,1,6.43,19.76c2,9.46-3.78,25-3.78,25l-23.69-21Z"/><path class="e" d="M852.81,612.46a124.82,124.82,0,0,1-1.09,20.76c-1.51,9.55-12.47,21.94-12.47,21.94L824.68,627Z"/><path class="e" d="M847.82,636.44a125.66,125.66,0,0,1-8.45,19c-4.84,8.38-19.51,16-19.51,16L816.34,640Z"/><path class="e" d="M834.57,657a124.69,124.69,0,0,1-14.7,14.7c-7.51,6.09-24,8-24,8l8-30.66Z"/><path class="e" d="M814.81,671.53a124.37,124.37,0,0,1-19,8.45c-9.2,3-25.22-1.14-25.22-1.14l18.45-25.76Z"/><path class="e" d="M791.18,678a124.91,124.91,0,0,1-20.75,1.09c-9.66-.5-23.13-10.11-23.13-10.11l26.45-17.43Z"/><path class="e" d="M766.81,675.52A126,126,0,0,1,747,669.1c-8.83-3.94-18-17.73-18-17.73l30.94-6.8Z"/><path class="e" d="M744.94,664.49a125.3,125.3,0,0,1-16.16-13.08c-6.84-6.84-10.42-23-10.42-23l31.32,4.74Z"/><path class="e" d="M1018.09,644.6a124.68,124.68,0,0,1-9.44-18.52c-3.47-9-.17-25.24-.17-25.24l26.68,17.07Z"/><path class="e" d="M1010.42,621.34a125.12,125.12,0,0,1-2.18-20.67c0-9.68,8.88-23.63,8.88-23.63l18.8,25.5Z"/><path class="e" d="M1011.59,596.87a125.09,125.09,0,0,1,5.38-20.08c3.47-9,16.76-18.87,16.76-18.87l8.41,30.54Z"/><path class="e" d="M1021.46,574.45a125.38,125.38,0,0,1,12.21-16.82c6.48-7.18,22.41-11.61,22.41-11.61L1053,577.55Z"/><path class="e" d="M1038.7,557.05a125.91,125.91,0,0,1,17.43-11.32c8.62-4.39,25.09-2.81,25.09-2.81L1067,571.24Z"/><path class="e" d="M1061,547a125.43,125.43,0,0,1,20.33-4.32c9.62-1,24.42,6.36,24.42,6.36l-23.4,21.36Z"/><path class="e" d="M1085.49,545.61a124.58,124.58,0,0,1,20.53,3.25c9.34,2.5,20.52,14.69,20.52,14.69l-29.49,11.55Z"/><path class="e" d="M1108.82,553.07a125.65,125.65,0,0,1,18,10.39c7.83,5.69,13.9,21.08,13.9,21.08l-31.68.21Z"/><path class="e" d="M1127.92,568.41A125.38,125.38,0,0,1,1141,584.56c5.26,8.11,5.41,24.65,5.41,24.65l-29.65-11.15Z"/><path class="e" d="M1140.26,589.57a124.85,124.85,0,0,1,6.43,19.76c2,9.46-3.78,25-3.78,25l-23.68-21Z"/><path class="e" d="M1144.2,613.74a125.47,125.47,0,0,1-1.08,20.76c-1.52,9.55-12.47,21.94-12.47,21.94l-14.58-28.12Z"/><path class="e" d="M1139.21,637.72a124.53,124.53,0,0,1-8.45,19c-4.84,8.38-19.5,16-19.5,16l-3.53-31.48Z"/><path class="e" d="M1126,658.32a125.09,125.09,0,0,1-14.69,14.7c-7.52,6.09-24,8-24,8l8-30.66Z"/><path class="e" d="M1106.21,672.81a125.37,125.37,0,0,1-19,8.46c-9.2,3-25.21-1.15-25.21-1.15l18.44-25.76Z"/><path class="e" d="M1082.57,679.25a124.81,124.81,0,0,1-20.75,1.09c-9.66-.5-23.13-10.11-23.13-10.11l26.45-17.43Z"/><path class="e" d="M1058.2,676.8a126,126,0,0,1-19.77-6.42c-8.83-3.94-18-17.73-18-17.73l31-6.8Z"/><path class="e" d="M1036.33,665.77a125.3,125.3,0,0,1-16.16-13.08c-6.83-6.84-10.42-23-10.42-23l31.32,4.74Z"/><rect class="c" x="637" y="373.35" width="6" height="90.6"/><polygon class="c" points="1080.09 543.19 1074.09 543.19 1074.09 470.47 205.91 470.47 205.91 543.19 199.91 543.19 199.91 464.47 1080.09 464.47 1080.09 543.19"/><circle class="e" cx="336.26" cy="846.41" r="28.78"/><circle class="e" cx="652.35" cy="846.41" r="28.78"/></svg>