<svg xmlns="http://www.w3.org/2000/svg" viewBox="0 0 1280 960"><defs><style>.a{fill:#e6e7e8;}.b{fill:#fff;}.c{fill:#4f3590;}.d{fill:#cddc29;}.e{fill:#e66a2c;}</style></defs><rect class="a" width="1280" height="960"/><circle class="b" cx="638.29" cy="463.98" r="182.61"/><path class="c" d="M477.67,551.11s-18.68-25.74-21-37,1.55-40.26,1.77-39.15l47.68,28.45Z"/><path class="c" d="M457.75,496.5s-9.81-30.25-8.54-41.66S463.12,417,463,418.15l36.55,41.79Z"/><path class="c" d="M455.69,438.4s0-31.8,4.74-42.25,24.92-31.67,24.45-30.64l21.85,51Z"/><path class="c" d="M471.67,382.51s9.85-30.24,17.58-38.72,33.47-22.41,32.71-21.58l5,55.3Z"/><path class="c" d="M504.15,334.3s18.7-25.72,28.68-31.4,38.76-11,37.78-10.41l-12.32,54.13Z"/><path class="c" d="M549.93,298.48s25.74-18.68,37-21,40.26,1.55,39.15,1.77l-28.45,47.68Z"/><path class="c" d="M604.55,278.56s30.25-9.81,41.65-8.54S684,283.93,682.89,283.8L641.1,320.35Z"/><path class="c" d="M662.64,276.5s31.8,0,42.26,4.74,31.66,24.92,30.63,24.45l-51,21.85Z"/><path class="c" d="M718.53,292.48s30.24,9.84,38.72,17.57,22.42,33.48,21.58,32.72l-55.29,5Z"/><path class="c" d="M766.74,325s25.73,18.7,31.4,28.67,11,38.77,10.42,37.79l-54.14-12.33Z"/><path class="c" d="M802.56,370.74s18.69,25.74,21,37S822,448,821.79,446.87l-47.68-28.45Z"/><path class="c" d="M822.48,425.35S832.3,455.61,831,467s-13.91,37.81-13.79,36.69l-36.55-41.79Z"/><path class="c" d="M824.55,483.45s0,31.8-4.75,42.26-24.91,31.66-24.44,30.63l-21.85-51Z"/><path class="c" d="M808.56,539.34s-9.84,30.24-17.57,38.72-33.48,22.42-32.71,21.58l-5-55.29Z"/><path class="c" d="M776.09,587.55s-18.71,25.72-28.68,31.4-38.77,11-37.78,10.42L722,575.23Z"/><path class="c" d="M730.3,623.37s-25.74,18.68-37,21-40.26-1.54-39.16-1.77l28.45-47.68Z"/><path class="c" d="M675.69,643.29s-30.25,9.81-41.66,8.54-37.81-13.91-36.68-13.78l41.79-36.55Z"/><path class="c" d="M617.6,645.36s-31.81,0-42.26-4.75-31.67-24.91-30.64-24.44l51-21.85Z"/><path class="c" d="M561.71,629.37S531.46,619.53,523,611.8s-22.41-33.48-21.58-32.72l55.3-5Z"/><path class="c" d="M513.49,596.89s-25.72-18.7-31.4-28.67-11-38.77-10.41-37.78l54.13,12.32Z"/><path class="d" d="M534.74,521.18s-9.55-15.16-15.08-29.59-.28-40.31-.28-40.31L562,478.55Z"/><path class="d" d="M522.48,484S519,466.44,519,451s14.19-37.74,14.19-37.74l30,40.74Z"/><path class="d" d="M524.36,444.93s3-17.65,8.59-32.07,26.77-30.15,26.77-30.15l13.43,48.79Z"/><path class="d" d="M540.12,409.12s9.18-15.39,19.51-26.87,35.8-18.55,35.8-18.55l-4.95,50.36Z"/><path class="d" d="M567.67,381.33s14.08-11.08,27.84-18.09,40.07-4.49,40.07-4.49L612.91,404Z"/><path class="d" d="M603.35,365.26s17.11-5.3,32.47-6.91,39,10.17,39,10.17l-37.38,34.11Z"/><path class="d" d="M642.41,363s17.87,1.19,32.8,5.19S708,391.7,708,391.7l-47.12,18.46Z"/><path class="d" d="M679.68,375s16.26,7.52,28.75,16.6,22.2,33.66,22.2,33.66l-50.61.34Z"/><path class="d" d="M710.19,399.46s12.49,12.85,20.9,25.8,8.66,39.38,8.66,39.38l-47.37-17.81Z"/><path class="d" d="M729.9,433.26s7.06,16.47,10.27,31.58-6,39.87-6,39.87L696.3,471.1Z"/><path class="d" d="M736.19,471.88s.69,17.9-1.73,33.16-19.92,35.06-19.92,35.06l-23.28-44.94Z"/><path class="d" d="M728.22,510.19s-5.77,17-13.5,30.34-31.15,25.59-31.15,25.59l-5.64-50.3Z"/><path class="d" d="M707.06,543.1s-11.47,13.76-23.48,23.48-38.26,12.73-38.26,12.73l12.77-49Z"/><path class="d" d="M675.5,566.24s-15.64,8.73-30.33,13.51-40.28-1.84-40.28-1.84l29.47-41.14Z"/><path class="d" d="M637.75,576.53s-17.73,2.55-33.16,1.74-36.94-16.14-36.94-16.14l42.25-27.85Z"/><path class="d" d="M598.82,572.61s-17.47-4-31.58-10.26S538.53,534,538.53,534L588,523.18Z"/><path class="d" d="M563.88,555S549,545,538.07,534.1s-16.65-36.72-16.65-36.72l50,7.58Z"/><path class="e" d="M436.48,650.45a288.06,288.06,0,0,1-2.4-394.89l4.39,4.09a282.06,282.06,0,0,0,2.35,386.66Z"/><path class="e" d="M843.65,660.4l-4.14-4.35A281.82,281.82,0,0,0,842,249.78l4.19-4.29a287.85,287.85,0,0,1-2.53,414.91Z"/><path class="e" d="M902.93,719.69l-6.25-6.48a362.56,362.56,0,0,0,2.47-520.58l6.3-6.43a371.6,371.6,0,0,1-2.52,533.49Z"/><path class="e" d="M377.19,709.72a371.86,371.86,0,0,1-2.44-513.46l6.54,6.18a362.86,362.86,0,0,0,2.38,501Z"/><path class="e" d="M962.45,779.22l-8.35-8.61a443.73,443.73,0,0,0,2.46-635.39l8.42-8.55a455.7,455.7,0,0,1-2.53,652.55Z"/><path class="e" d="M317.65,769.24a456.08,456.08,0,0,1-2.45-632.51l8.68,8.28a444.08,444.08,0,0,0,2.39,615.88Z"/></svg>