<svg xmlns="http://www.w3.org/2000/svg" viewBox="0 0 256 136"><defs><style>.a{fill:#4f3590;}.b{fill:#231f20;}.c{fill:#cddc29;}.d{fill:#e66a2c;}</style></defs><path class="a" d="M30.28,82.89a13.17,13.17,0,0,0-8.84-3.52,13.63,13.63,0,0,0,0,27.26A12.86,12.86,0,0,0,30.6,103l2.75,3.12a18.35,18.35,0,0,1-11.91,4.6,17.7,17.7,0,1,1,0-35.38,18.08,18.08,0,0,1,11.78,4.38Z"/><path class="a" d="M49.86,86.1A12.4,12.4,0,0,1,62.59,98.42c0,6.72-5.06,12.27-12.73,12.27s-12.72-5.55-12.72-12.27A12.39,12.39,0,0,1,49.86,86.1ZM41.47,98.42a8.39,8.39,0,1,0,16.78,0,8.39,8.39,0,1,0-16.78,0Z"/><path class="a" d="M84,96.48c0-3.52-1.44-6.59-5.46-6.59-3.79,0-6.09,2.57-6.09,7v13.22H68.4V86.64h4.06v2.75h.09A7.41,7.41,0,0,1,79,86.1c4.55,0,9.07,2.48,9.07,8.84v15.21H84Z"/><path class="a" d="M116.63,105.59c-3.15,3.52-6.49,5.1-10.6,5.1-8.35,0-12.81-6-12.81-12.32,0-6.68,4.78-12.27,12.13-12.27s12.32,5.55,12.32,13.85H97.55a8.17,8.17,0,0,0,8.44,7,9.83,9.83,0,0,0,7.53-3.79Zm-3.56-9a7.84,7.84,0,0,0-15.52,0Z"/><path class="a" d="M123.9,83.07c0-4.91,3.38-7.26,8-7.49v4.07h-.77c-2.08,0-3.2,1.66-3.2,3.74v3.25h4V90.2h-3.84v20H124v-20h-3.56V86.64h3.43Zm11.68-7.22h4.06v26.94c0,2.66,1.31,3.57,2.62,3.57h1.22v3.79h-1.67c-3.75,0-6.23-2.12-6.23-7Z"/><path class="a" d="M158.45,86.1a12.4,12.4,0,0,1,12.73,12.32c0,6.72-5.06,12.27-12.73,12.27s-12.72-5.55-12.72-12.27A12.39,12.39,0,0,1,158.45,86.1Zm-8.39,12.32a8.4,8.4,0,1,0,16.79,0,8.4,8.4,0,1,0-16.79,0Z"/><path class="a" d="M206.32,86.64h4.34L202,110.15h-3.34l-6.31-18.37h-.09l-6.32,18.37h-3.34l-8.66-23.51h4.33l5.91,17h.09l5.87-17h4.33l5.86,17h.09Z"/><path class="a" d="M236.15,105.59c-3.16,3.52-6.5,5.1-10.61,5.1-8.35,0-12.81-6-12.81-12.32,0-6.68,4.78-12.27,12.14-12.27s12.31,5.55,12.31,13.85H217.06a8.17,8.17,0,0,0,8.44,7,9.81,9.81,0,0,0,7.53-3.79Zm-3.57-9a7.84,7.84,0,0,0-15.52,0Z"/><path class="a" d="M242.5,86.64h4.07V90h.09c2-3.66,4-3.88,7.39-3.88v4.28a8.5,8.5,0,0,0-1.84-.22c-3.39,0-5.64,2.34-5.64,6.63v13.36H242.5Z"/><path class="b" d="M53.46,125.07a3.7,3.7,0,0,0-1.41-2.37,4.73,4.73,0,0,0-2.69-.7,4,4,0,0,0-3.42,1.73,5.86,5.86,0,0,0-.81,1.83,9.27,9.27,0,0,0-.26,2.2,9.52,9.52,0,0,0,.23,2.13,5.8,5.8,0,0,0,.74,1.86,4,4,0,0,0,1.41,1.33,4.39,4.39,0,0,0,2.22.51,4.15,4.15,0,0,0,1.52-.27,3.92,3.92,0,0,0,1.2-.75,4.39,4.39,0,0,0,.86-1.13,5.43,5.43,0,0,0,.54-1.43h1.28a8.73,8.73,0,0,1-.63,1.78,5,5,0,0,1-1.1,1.47,4.81,4.81,0,0,1-1.64,1,6.23,6.23,0,0,1-2.26.37,5.51,5.51,0,0,1-2.57-.55,4.74,4.74,0,0,1-1.74-1.49,6.15,6.15,0,0,1-1-2.17,10.59,10.59,0,0,1-.31-2.63,9.61,9.61,0,0,1,.46-3.15,5.49,5.49,0,0,1,1.28-2.12,4.77,4.77,0,0,1,1.91-1.2,7.64,7.64,0,0,1,2.4-.37,6.13,6.13,0,0,1,1.85.27,4.35,4.35,0,0,1,2.6,2.07,5.56,5.56,0,0,1,.58,1.78Z"/><path class="b" d="M62.18,127.81a9.21,9.21,0,0,1,.38-2.67A6.35,6.35,0,0,1,63.71,123a5.45,5.45,0,0,1,1.88-1.47,5.7,5.7,0,0,1,2.58-.55,6.16,6.16,0,0,1,2.66.54A5.33,5.33,0,0,1,72.74,123a6.42,6.42,0,0,1,1.16,2.18,9,9,0,0,1,.39,2.68,8.8,8.8,0,0,1-.39,2.65,6.4,6.4,0,0,1-1.15,2.16,5.39,5.39,0,0,1-1.89,1.47,6.1,6.1,0,0,1-2.64.54,6,6,0,0,1-2.63-.54,5.43,5.43,0,0,1-1.9-1.47,6.36,6.36,0,0,1-1.13-2.16A8.8,8.8,0,0,1,62.18,127.81Zm6.06,5.78a4.57,4.57,0,0,0,2.17-.48,4.31,4.31,0,0,0,1.5-1.27,5.59,5.59,0,0,0,.87-1.84,8.76,8.76,0,0,0,.28-2.19,8,8,0,0,0-.34-2.43,5.32,5.32,0,0,0-1-1.83,4.13,4.13,0,0,0-1.53-1.15,4.94,4.94,0,0,0-2-.4,4.41,4.41,0,0,0-2.15.49,4.26,4.26,0,0,0-1.5,1.29,5.54,5.54,0,0,0-.87,1.85,8.7,8.7,0,0,0,0,4.38,5.4,5.4,0,0,0,.87,1.84,4.31,4.31,0,0,0,1.5,1.27A4.75,4.75,0,0,0,68.24,133.59Z"/><path class="b" d="M83.36,123h0v11.33H82.1v-13h1.39L91,132.65h0V121.3h1.23v13H90.83Z"/><path class="b" d="M101.08,130.41a3.86,3.86,0,0,0,.39,1.47,2.9,2.9,0,0,0,.81,1,3.25,3.25,0,0,0,1.15.56,5.63,5.63,0,0,0,1.39.17,4.75,4.75,0,0,0,1.5-.22,2.79,2.79,0,0,0,1-.59,2.23,2.23,0,0,0,.58-.85,2.77,2.77,0,0,0,.19-1,2,2,0,0,0-.34-1.23,2.77,2.77,0,0,0-.89-.77,5.9,5.9,0,0,0-1.27-.47l-1.46-.36c-.5-.11-1-.25-1.46-.4a4.64,4.64,0,0,1-1.26-.63,3.16,3.16,0,0,1-.9-1,3.24,3.24,0,0,1-.34-1.58,3.11,3.11,0,0,1,.28-1.3,3.21,3.21,0,0,1,.83-1.12,4.18,4.18,0,0,1,1.38-.78,5.85,5.85,0,0,1,1.91-.29,5.52,5.52,0,0,1,1.92.31,4,4,0,0,1,1.37.84,3.51,3.51,0,0,1,.81,1.24,4.14,4.14,0,0,1,.27,1.49H107.8a3,3,0,0,0-.26-1.28,2.49,2.49,0,0,0-.72-.88,3,3,0,0,0-1-.51,4.68,4.68,0,0,0-1.19-.16,4.32,4.32,0,0,0-1.58.26,2.94,2.94,0,0,0-1,.68,2.35,2.35,0,0,0-.52.92,2.16,2.16,0,0,0,0,1,1.77,1.77,0,0,0,.5,1,3.22,3.22,0,0,0,1,.62,6.52,6.52,0,0,0,1.27.4l1.42.33c.48.11.94.25,1.39.4a4.41,4.41,0,0,1,1.2.63,3,3,0,0,1,.84,1,3.47,3.47,0,0,1,.32,1.56,3.37,3.37,0,0,1-1.25,2.8,5.48,5.48,0,0,1-3.5,1,6.22,6.22,0,0,1-1.87-.26,4.14,4.14,0,0,1-1.5-.79,3.83,3.83,0,0,1-1-1.32,4.56,4.56,0,0,1-.35-1.85Z"/><path class="b" d="M117,121.3h1.22V129a5.32,5.32,0,0,0,.91,3.48,3.6,3.6,0,0,0,2.9,1.07,5.15,5.15,0,0,0,1.78-.28,2.71,2.71,0,0,0,1.18-.85,3.52,3.52,0,0,0,.65-1.42,8.94,8.94,0,0,0,.2-2V121.3h1.23v8.1a5.48,5.48,0,0,1-1.26,3.89,6,6,0,0,1-7.57,0A5.53,5.53,0,0,1,117,129.4Z"/><path class="b" d="M135.46,134.29v-13h1.23v11.94h7v1Z"/><path class="b" d="M149.74,121.3h9.45v1h-4.11v11.95h-1.23V122.34h-4.11Z"/><path class="b" d="M166.79,134.29v-13H168v13Z"/><path class="b" d="M178,123h0v11.33h-1.23v-13h1.39l7.51,11.35h0V121.3h1.23v13h-1.42Z"/><path class="b" d="M200.75,128.62v-1h5.56v6.71h-1.05v-2.22a5.92,5.92,0,0,1-.78,1.06,4.05,4.05,0,0,1-1,.81,4.92,4.92,0,0,1-1.34.51,7.36,7.36,0,0,1-1.71.18,5.81,5.81,0,0,1-2.27-.43,4.93,4.93,0,0,1-1.81-1.29,6,6,0,0,1-1.18-2.16,9.81,9.81,0,0,1-.42-3,9.45,9.45,0,0,1,.36-2.66,6,6,0,0,1,1.11-2.15,5.22,5.22,0,0,1,1.87-1.43,6.3,6.3,0,0,1,2.67-.53,7,7,0,0,1,1.92.26,5.14,5.14,0,0,1,1.6.76,4.49,4.49,0,0,1,1.2,1.29,5.35,5.35,0,0,1,.71,1.81H204.9a3.8,3.8,0,0,0-1.48-2.27,4.39,4.39,0,0,0-1.21-.59,4.52,4.52,0,0,0-1.38-.21,5,5,0,0,0-2.21.45,4.05,4.05,0,0,0-1.51,1.27,5.64,5.64,0,0,0-.88,2,11,11,0,0,0-.28,2.52,6.68,6.68,0,0,0,.32,2.06,5.21,5.21,0,0,0,.92,1.71,4.39,4.39,0,0,0,3.47,1.61,5.27,5.27,0,0,0,1.09-.12,4.38,4.38,0,0,0,1.08-.39,4,4,0,0,0,1-.7,4.16,4.16,0,0,0,.78-1.07A4.81,4.81,0,0,0,205,130a8.86,8.86,0,0,0,.14-1.41Z"/><path class="a" d="M101.48,46.9s-3-4.2-3.43-6a26.34,26.34,0,0,1,.29-6.39l7.79,4.64Z"/><path class="a" d="M98.23,38s-1.6-4.94-1.4-6.8a26.29,26.29,0,0,1,2.25-6l6,6.82Z"/><path class="a" d="M97.89,28.51s0-5.2.78-6.9a25.1,25.1,0,0,1,4-5l3.56,8.33Z"/><path class="a" d="M100.5,19.38s1.61-4.93,2.87-6.32a25.67,25.67,0,0,1,5.34-3.52l.82,9Z"/><path class="a" d="M105.8,11.51s3.06-4.2,4.68-5.12a25.52,25.52,0,0,1,6.17-1.7l-2,8.83Z"/><path class="a" d="M113.28,5.66s4.2-3,6-3.42a25.29,25.29,0,0,1,6.39.29l-4.64,7.78Z"/><path class="a" d="M122.19,2.41S127.13.81,129,1a25.81,25.81,0,0,1,6,2.25l-6.82,6Z"/><path class="a" d="M131.68,2.08s5.19,0,6.89.77a25.47,25.47,0,0,1,5,4l-8.33,3.57Z"/><path class="a" d="M140.8,4.69s4.94,1.6,6.32,2.86a25.94,25.94,0,0,1,3.52,5.34l-9,.82Z"/><path class="a" d="M148.67,10s4.2,3,5.13,4.68a26,26,0,0,1,1.7,6.17l-8.84-2Z"/><path class="a" d="M154.52,17.46s3,4.2,3.42,6a26,26,0,0,1-.28,6.39l-7.79-4.65Z"/><path class="a" d="M157.77,26.38s1.6,4.93,1.39,6.8a25,25,0,0,1-2.25,6l-6-6.82Z"/><path class="a" d="M158.11,35.86s0,5.19-.78,6.9a25.79,25.79,0,0,1-4,5l-3.57-8.33Z"/><path class="a" d="M155.5,45s-1.61,4.94-2.87,6.32a25.85,25.85,0,0,1-5.34,3.53l-.82-9Z"/><path class="a" d="M150.19,52.85s-3.05,4.2-4.68,5.13a25.36,25.36,0,0,1-6.16,1.7l2-8.84Z"/><path class="a" d="M142.72,58.7s-4.2,3-6,3.43a25.36,25.36,0,0,1-6.39-.29l4.65-7.78Z"/><path class="a" d="M133.81,62s-4.94,1.6-6.8,1.4a25.43,25.43,0,0,1-6-2.25l6.82-6Z"/><path class="a" d="M124.32,62.29s-5.19,0-6.9-.78a25.73,25.73,0,0,1-5-4L120.76,54Z"/><path class="a" d="M115.2,59.68s-4.94-1.61-6.32-2.87a25.58,25.58,0,0,1-3.53-5.34l9-.82Z"/><path class="a" d="M107.33,54.38s-4.2-3.05-5.13-4.68a26,26,0,0,1-1.7-6.17l8.84,2Z"/><path class="c" d="M110.8,42a33.29,33.29,0,0,1-2.47-4.83c-.9-2.36,0-6.58,0-6.58l7,4.45Z"/><path class="c" d="M108.8,36a32.57,32.57,0,0,1-.57-5.39c0-2.52,2.32-6.16,2.32-6.16l4.9,6.65Z"/><path class="c" d="M109.1,29.57a32.91,32.91,0,0,1,1.4-5.23c.91-2.36,4.38-4.93,4.38-4.93l2.19,8Z"/><path class="c" d="M111.68,23.73a31.79,31.79,0,0,1,3.18-4.39c1.69-1.87,5.84-3,5.84-3l-.8,8.22Z"/><path class="c" d="M116.17,19.19a32.3,32.3,0,0,1,4.55-3c2.24-1.15,6.54-.74,6.54-.74l-3.7,7.39Z"/><path class="c" d="M122,16.57a32.05,32.05,0,0,1,5.3-1.13c2.51-.27,6.37,1.66,6.37,1.66l-6.1,5.57Z"/><path class="c" d="M128.37,16.2a33.3,33.3,0,0,1,5.36.85c2.43.65,5.35,3.83,5.35,3.83l-7.69,3Z"/><path class="c" d="M134.46,18.15a33,33,0,0,1,4.69,2.71c2,1.48,3.62,5.5,3.62,5.5l-8.26.05Z"/><path class="c" d="M139.44,22.15a32.74,32.74,0,0,1,3.41,4.21c1.37,2.12,1.41,6.43,1.41,6.43l-7.73-2.91Z"/><path class="c" d="M142.66,27.67a32.2,32.2,0,0,1,1.67,5.15c.53,2.47-1,6.51-1,6.51l-6.18-5.49Z"/><path class="c" d="M143.68,34a33.06,33.06,0,0,1-.28,5.41c-.39,2.5-3.25,5.73-3.25,5.73l-3.8-7.34Z"/><path class="c" d="M142.38,40.23a32.88,32.88,0,0,1-2.2,5c-1.26,2.18-5.09,4.17-5.09,4.17l-.92-8.21Z"/><path class="c" d="M138.93,45.6a33.44,33.44,0,0,1-3.84,3.83c-2,1.59-6.24,2.08-6.24,2.08l2.08-8Z"/><path class="c" d="M133.77,49.37a32.43,32.43,0,0,1-5,2.21c-2.39.78-6.57-.3-6.57-.3l4.81-6.72Z"/><path class="c" d="M127.61,51.05a32.57,32.57,0,0,1-5.41.29c-2.52-.13-6-2.64-6-2.64l6.9-4.54Z"/><path class="c" d="M121.26,50.41a32.14,32.14,0,0,1-5.16-1.67c-2.3-1-4.68-4.62-4.68-4.62l8.06-1.77Z"/><path class="c" d="M115.55,47.54a32.82,32.82,0,0,1-4.21-3.41c-1.78-1.78-2.72-6-2.72-6l8.17,1.24Z"/><path class="d" d="M148,7.84l.32.38.26.38a25.38,25.38,0,1,1-18.48,43.34l-.61.06-.24.12.16.17A26.12,26.12,0,1,0,148.08,7.84Z"/><path class="d" d="M125.54,45.69a25.38,25.38,0,0,1,15.26-36l-.11-.75A26.24,26.24,0,0,0,121.91,34a25.93,25.93,0,0,0,3.14,12.37Z"/></svg>