<svg xmlns="http://www.w3.org/2000/svg" viewBox="0 0 1280 960"><defs><style>.a{fill:#e6e7e8;}.b{fill:#fff;}.c{fill:#4f3590;}.d{fill:#cddc29;}.e{fill:#e66a2c;}</style></defs><rect class="a" width="1280" height="960"/><circle class="b" cx="633" cy="492" r="196"/><path class="c" d="M831.85,455c.62-8.56.87-18-.27-23.52-1.91-9.27-14.17-27.7-19.76-35.75-2.05-8.34-4.74-17.41-7.52-22.29-4.68-8.22-22-22-29.84-27.9-4.53-7.29-9.89-15.09-14-18.87-7-6.37-27.74-14.08-37-17.31-6.56-5.54-14.07-11.3-19.18-13.61-8.62-3.9-30.74-4.82-40.54-5-8-3.24-16.88-6.4-22.46-7-9.4-1.05-30.71,4.92-40.1,7.75-8.56-.63-18-.87-23.53.26-9.26,1.91-27.69,14.17-35.75,19.76-8.33,2.05-17.41,4.74-22.29,7.52-8.22,4.68-22,22-27.89,29.84-7.29,4.53-15.1,9.89-18.88,14-6.37,7-14.07,27.75-17.3,37-5.54,6.56-11.3,14.07-13.62,19.19-3.9,8.61-4.81,30.73-5,40.54-3.24,7.95-6.4,16.87-7,22.45-1,9.4,4.92,30.72,7.74,40.11-.62,8.56-.87,18,.27,23.52,1.91,9.26,14.17,27.69,19.76,35.75,2.05,8.34,4.74,17.41,7.52,22.29,4.68,8.22,22,22,29.84,27.9,4.53,7.29,9.89,15.09,14,18.87,7,6.37,27.74,14.08,37,17.31,6.56,5.54,14.07,11.3,19.19,13.61,8.61,3.9,30.73,4.81,40.53,5,7.95,3.24,16.88,6.4,22.46,7,9.4,1,30.71-4.92,40.1-7.75,8.56.62,18,.87,23.53-.26,9.26-1.91,27.69-14.17,35.75-19.76,8.33-2.06,17.41-4.75,22.29-7.52,8.22-4.68,22-22,27.89-29.85,7.29-4.52,15.1-9.89,18.88-14,6.37-7,14.07-27.75,17.3-37,5.54-6.55,11.3-14.07,13.62-19.18,3.9-8.62,4.81-30.74,5-40.54,3.24-7.95,6.4-16.87,7-22.45C840.64,485.69,834.67,464.37,831.85,455ZM722.54,611.23,713.25,652l-32.92-19.64L658.9,668.27l-25.24-28.85L602.18,667l-15.09-35.24-38.44,16.46L545.19,610l-41.65,3.77,8.51-37.38-40.78-9.28,19.64-32.93L455,512.75l28.86-25.24L456.32,456l35.24-15.09-16.45-38.45L513.29,399l-3.78-41.65,37.38,8.51,9.29-40.78,32.92,19.65,21.43-35.92,25.24,28.86,31.48-27.53,15.09,35.24L720.78,329l3.46,38.18,41.65-3.77-8.51,37.38L798.16,410l-19.64,32.92,35.91,21.43-28.86,25.24,27.54,31.48-35.24,15.09,16.45,38.45-38.18,3.45,3.78,41.66Z"/><path class="d" d="M736.3,533.59c2.19-6.41,8.68-27.25,5.79-40.83-.16-.76-.34-1.52-.51-2.28-.26-6.77-1.67-28.55-9.23-40.19-.43-.65-.86-1.3-1.3-2-2.66-6.22-11.78-26-23-34.21l-1.9-1.36c-4.72-4.85-20.34-20.1-33.76-23.69l-2.26-.58c-6.15-2.84-26.19-11.48-40-10l-2.33.27c-6.75-.45-28.56-1.33-40.93,5l-2.07,1.09c-6.47,2-27.14,9-36.44,19.32-.52.57-1,1.16-1.54,1.75-5.33,4.19-22.12,18.13-27.09,31.09-.28.73-.55,1.46-.82,2.19C515.42,445,504.74,464,504.74,477.9c0,.77,0,1.56,0,2.34-1.16,6.67-4.31,28.26.67,41.23.81,2.11,1.7,4.23,2.63,6.33l-.74-.11s6.15,27.68,17.87,39.4l1.67,1.64c3.9,5.53,16.94,23,29.63,28.68l2.15.92c5.62,3.77,24.07,15.43,37.94,16.16l2.33.1c6.61,1.5,28,5.78,41.22,1.48.73-.23,1.47-.49,2.21-.74,6.7-1,28.22-4.64,39-13.38l1.8-1.49c5.91-3.31,24.68-14.45,31.62-26.47.39-.68.77-1.36,1.15-2,4.33-5.2,17.86-22.33,20-36.05C736.08,535.14,736.19,534.37,736.3,533.59ZM628.16,570.33l-12.75,17.81-13.5-20.48-18.28,12.05-5.26-24L557,560.45l3.67-24.26-25.77-3.9,15.64-24.44-18.45-11.8,19.75-14.55-13-17.63,23.65-6.51-5.81-21.11,24.41,2.4,2.14-21.8,21.93,11L615,408.26l16.53,18.12,16.18-14.76,8.94,22.84,20.39-8,.17,24.53,21.89-.15-8.63,23,20.49,7.71-16.28,18.34L711,514.4l-21.78,11.28,10.07,19.44-24.37,2.73,2.43,21.77-23.73-6.19-5.53,21.19Z"/><path class="e" d="M416.43,691.86a309,309,0,0,1-2.58-423.6l4.71,4.38a302.57,302.57,0,0,0,2.53,414.78Z"/><path class="e" d="M853.8,702.53l-4.44-4.66A302.31,302.31,0,0,0,852,262.06l4.5-4.61a308.78,308.78,0,0,1-2.71,445.08Z"/><path class="e" d="M917.38,766.14l-6.69-7a388.93,388.93,0,0,0,2.64-558.43l6.76-6.89a398.6,398.6,0,0,1-2.71,572.28Z"/><path class="e" d="M352.83,755.44a398.89,398.89,0,0,1-2.62-550.79l7,6.63a389.25,389.25,0,0,0,2.55,537.46Z"/><path class="e" d="M981.23,830l-9-9.24a476,476,0,0,0,2.64-681.59l9-9.17a488.83,488.83,0,0,1-2.72,700Z"/><path class="e" d="M289,819.29a489.22,489.22,0,0,1-2.64-678.5l9.31,8.89a476.34,476.34,0,0,0,2.57,660.65Z"/></svg>