<?xml version="1.0" encoding="utf-8"?>
<!-- Generator: Adobe Illustrator 24.1.0, SVG Export Plug-In . SVG Version: 6.00 Build 0)  -->
<svg version="1.1" id="Layer_1" xmlns="http://www.w3.org/2000/svg" xmlns:xlink="http://www.w3.org/1999/xlink" x="0px" y="0px"
	 viewBox="0 0 1500 1500" style="enable-background:new 0 0 1500 1500;" xml:space="preserve">
<style type="text/css">
	.st0{fill:#4F3590;}
	.st1{fill:#CDDC29;}
</style>
<path class="st0" d="M1466.4,628c2.3-31.1,3.2-65.5-1-85.5c-6.9-33.6-51.5-100.6-71.8-129.9c-7.5-30.3-17.2-63.3-27.3-81
	c-17-29.9-80.1-79.8-108.4-101.4c-16.4-26.5-35.9-54.9-51-68.6c-25.4-23.1-100.8-51.1-134.5-62.9c-23.8-20.1-51.1-41.1-69.7-49.5
	C971.4,35,891,31.7,855.3,30.9C826.4,19.2,794,7.7,773.7,5.4C739.6,1.6,662.1,23.3,628,33.6c-31.1-2.3-65.5-3.2-85.5,1
	c-33.6,6.9-100.6,51.5-129.9,71.8c-30.3,7.5-63.3,17.2-81,27.3c-29.9,17-79.8,80.1-101.4,108.4c-26.5,16.4-54.9,35.9-68.6,51
	c-23.1,25.4-51.1,100.8-62.9,134.5c-20.1,23.8-41.1,51.1-49.5,69.7C35,528.6,31.7,609,30.9,644.7C19.2,673.6,7.7,706,5.4,726.3
	C1.6,760.4,23.3,837.9,33.6,872c-2.3,31.1-3.2,65.5,1,85.5c6.9,33.6,51.5,100.6,71.8,129.9c7.5,30.3,17.2,63.3,27.3,81
	c17,29.9,80.1,79.8,108.4,101.4c16.4,26.5,35.9,54.9,51,68.6c25.4,23.1,100.8,51.1,134.5,62.9c23.8,20.1,51.1,41.1,69.7,49.5
	c31.3,14.2,111.7,17.5,147.3,18.3c28.9,11.8,61.3,23.2,81.6,25.5c34.1,3.8,111.6-17.9,145.7-28.2c31.1,2.3,65.5,3.2,85.5-1
	c33.6-6.9,100.6-51.5,129.9-71.8c30.3-7.5,63.3-17.2,81-27.3c29.9-17,79.8-80.1,101.4-108.4c26.5-16.4,54.9-35.9,68.6-51
	c23.1-25.4,51.1-100.8,62.9-134.5c20.1-23.8,41.1-51.1,49.5-69.7c14.2-31.3,17.5-111.7,18.3-147.3c11.8-28.9,23.2-61.3,25.5-81.6
	C1498.4,739.6,1476.7,662.1,1466.4,628z M1069.2,1195.8l-33.7,148.2l-119.6-71.4l-77.9,130.5l-91.7-104.9l-114.4,100.1l-54.8-128.1
	L437.2,1330l-12.6-138.8L273.3,1205l30.9-135.8L156,1035.4l71.4-119.6L96.9,837.9l104.9-91.7L101.7,631.8l128.1-54.8L170,437.2
	l138.8-12.6L295,273.3l135.8,30.9L464.6,156l119.6,71.4l77.9-130.5l91.7,104.9l114.4-100.1l54.8,128.1l139.7-59.8l12.6,138.8
	l151.4-13.7l-30.9,135.8l148.2,33.7l-71.4,119.6l130.5,77.9l-104.9,91.7l100.1,114.4l-128.1,54.8l59.8,139.7l-138.8,12.6l13.7,151.4
	L1069.2,1195.8z"/>
<path class="st1" d="M1119.2,913.6c8-23.4,31.5-99,21-148.3c-0.6-2.8-1.2-5.5-1.9-8.3c-0.9-24.7-6.1-103.7-33.5-146
	c-1.5-2.4-3.1-4.7-4.7-7.1c-9.7-22.7-42.8-94.7-83.6-124.3c-2.3-1.7-4.6-3.3-7-4.9c-17.2-17.7-73.9-73-122.6-86.1
	c-2.7-0.7-5.5-1.4-8.3-2.1c-22.4-10.4-95.2-41.7-145.3-36.4c-2.8,0.3-5.6,0.6-8.5,1C700.1,349.3,621,346.1,576,369
	c-2.5,1.3-5,2.6-7.6,4c-23.6,7.3-98.6,32.7-132.4,70.2c-1.9,2.1-3.8,4.2-5.6,6.4c-19.4,15.3-80.3,65.9-98.4,113c-1,2.6-2,5.3-3,8
	c-12.6,21.2-51.4,90.3-51.4,140.7c0,2.8,0,5.7,0.1,8.5c-4.2,24.3-15.6,102.7,2.4,149.8c2.9,7.7,6.2,15.4,9.6,23l-2.7-0.4
	c0,0,22.3,100.6,64.9,143.2c2,2,4,4,6.1,6c14.2,20.2,61.6,83.7,107.7,104.2c2.6,1.2,5.2,2.3,7.8,3.4c20.5,13.7,87.5,56.1,137.9,58.7
	c2.8,0.1,5.7,0.3,8.5,0.4c24.1,5.5,101.8,21,149.7,5.4c2.7-0.9,5.4-1.8,8.1-2.7c24.4-3.5,102.5-16.9,141.7-48.6
	c2.2-1.8,4.4-3.6,6.6-5.4c21.5-12,89.7-52.5,114.9-96.2c1.4-2.5,2.8-4.9,4.2-7.4c15.8-19,64.9-81.2,72.8-131
	C1118.4,919.3,1118.8,916.4,1119.2,913.6z M727.5,1045.8l-46.3,64.7l-49.1-74.4l-66.4,43.8l-19.1-87.1l-77.7,17.1l13.3-88.1
	l-93.7-14.2l56.8-88.8l-67-42.9l71.8-52.9l-47.2-64.1l85.9-23.7l-21.1-76.7l88.7,8.7l7.8-79.2l79.7,39.9l35.6-71.1l60.1,65.8
	l58.8-53.6l32.5,83l74.1-29l0.6,89.1l79.6-0.5L953.8,695l74.5,28l-59.2,66.6l59.5,52.8l-79.1,41l36.6,70.7l-88.6,9.9l8.9,79.1
	l-86.3-22.5l-20.1,77L727.5,1045.8z"/>
</svg>
